<svg xmlns="http://www.w3.org/2000/svg" xmlns:xlink="http://www.w3.org/1999/xlink" xmlns:lucid="lucid" width="2425.08" height="1760"><g transform="translate(0 0)" lucid:page-tab-id="0_0"><path d="M0 0h2425.08v1760H0z" fill="#fff"/><path d="M1449.15 505.5h-122.12l-3 .4-2.77 1.14-2.4 1.83-1.82 2.4-1.14 2.75-.4 3v37.48h-1v-37.53l.42-3.2 1.24-3 2-2.6 2.6-2 3-1.25 3.2-.42h122.2zm135.35-17.63h-1V455.5h1zM1584.5 455.5h-1v-.5h1zM1315.5 555h-1v-.5h1zM1315.5 663.03l-.42 3.2-1.24 3-2 2.6-2.6 2-3 1.25-3.2.42h-726.5l-3.02.4-2.76 1.14-2.4 1.83-1.82 2.4-1.14 2.75-.4 3v37.48h-1v-37.53l.42-3.2 1.24-3 2-2.6 2.6-2 3-1.25 3.2-.42h726.5l3.02-.4 2.76-1.14 2.4-1.83 1.82-2.4 1.14-2.75.4-3v-.18h1zm0-21.83h-1v-15.7h1z" fill="#ccc"/><path d="M1315.5 625.5h-1v-.5h1zM565 725h-1v-.5h1z" fill="#ccc"/><path d="M565 833.03l-.42 3.2-1.24 3-2 2.6-2.6 2-3 1.25-3.2.42h-176l-3.02.4-2.76 1.14-2.4 1.83-1.82 2.4-1.14 2.75-.4 3v37.48h-1v-37.53l.42-3.2 1.24-3 2-2.6 2.6-2 3-1.25 3.2-.42h176l3.02-.4 2.76-1.14 2.4-1.83 1.82-2.4 1.14-2.75.4-3v-.54h1zm0-22.2h-1V795.5h1zM565 795.5h-1v-.5h1zM365 895h-1v-.5h1z" fill="#666"/><path d="M312.9 966v136.8c0 6.62 5.37 12 12 12H339" stroke="#ccc" stroke-width="2" fill="none"/><path d="M313.9 966.03h-2V965h2zM340 1115.8h-1.03v-2H340z" fill="#ccc"/><path d="M312.9 966v246.8c0 6.62 5.37 12 12 12H339" stroke="#ccc" stroke-width="2" fill="none"/><path d="M313.9 966.03h-2V965h2zM340 1225.8h-1.03v-2H340z" fill="#ccc"/><path d="M312.9 966v356.8c0 6.62 5.37 12 12 12H339" stroke="#ccc" stroke-width="2" fill="none"/><path d="M313.9 966.03h-2V965h2zM340 1335.8h-1.03v-2H340z" fill="#ccc"/><path d="M565 894.5h-1v-62.06h1zm0-83.66h-1V795.5h1zM565 795.5h-1v-.5h1zM565 895h-1v-.5h1z" fill="#666"/><path d="M512.9 980.8v122c0 6.62 5.37 12 12 12H539" stroke="#ccc" stroke-width="2" fill="none"/><path d="M513.9 980.83h-2v-1.03h2zM540 1115.8h-1.03v-2H540z" fill="#ccc"/><path d="M512.9 980.8v232c0 6.62 5.37 12 12 12H539" stroke="#ccc" stroke-width="2" fill="none"/><path d="M513.9 980.83h-2v-1.03h2zM540 1225.8h-1.03v-2H540z" fill="#ccc"/><path d="M512.9 980.8v342c0 6.62 5.37 12 12 12H539" stroke="#ccc" stroke-width="2" fill="none"/><path d="M513.9 980.83h-2v-1.03h2zM540 1335.8h-1.03v-2H540zM565 832.97l.4 3 1.14 2.77 1.83 2.4 2.4 1.82 2.75 1.14 3 .4h176l3.22.42 3 1.24 2.6 2 2 2.6 1.24 3 .42 3.2v37.54h-1v-37.47l-.4-3-1.14-2.77-1.83-2.4-2.4-1.82-2.75-1.14-3-.4h-176l-3.22-.42-3-1.24-2.6-2-2-2.6-1.24-3-.42-3.2v-.6h1zm0-22.13h-1V795.5h1zM565 795.5h-1v-.5h1zM765 895h-1v-.5h1z" fill="#ccc"/><use xlink:href="#a" transform="matrix(1,0,0,1,447.6250000000002,810.8372873232257) translate(0 14.4)"/><use xlink:href="#b" transform="matrix(1,0,0,1,447.6250000000002,810.8372873232257) translate(81.9 14.4)"/><use xlink:href="#c" transform="matrix(1,0,0,1,447.6250000000002,810.8372873232257) translate(118.80000000000001 14.4)"/><use xlink:href="#d" transform="matrix(1,0,0,1,447.6250000000002,810.8372873232257) translate(151.75 14.4)"/><path d="M712.9 980.8v122c0 6.62 5.37 12 12 12H739" stroke="#ccc" stroke-width="2" fill="none"/><path d="M713.9 980.83h-2v-1.03h2zM740 1115.8h-1.03v-2H740z" fill="#ccc"/><path d="M712.9 980.8v232c0 6.62 5.37 12 12 12H739" stroke="#ccc" stroke-width="2" fill="none"/><path d="M713.9 980.83h-2v-1.03h2zM740 1225.8h-1.03v-2H740z" fill="#ccc"/><path d="M712.9 980.8v342c0 6.62 5.37 12 12 12H739" stroke="#ccc" stroke-width="2" fill="none"/><path d="M713.9 980.83h-2v-1.03h2zM740 1335.8h-1.03v-2H740zM1315.5 663.03l-.42 3.2-1.24 3-2 2.6-2.6 2-3 1.25-3.2.42h-335.5l-3.02.4-2.76 1.14-2.4 1.83-1.82 2.4-1.14 2.75-.4 3v37.48h-1v-37.53l.42-3.2 1.24-3 2-2.6 2.6-2 3-1.25 3.2-.42h335.5l3.02-.4 2.76-1.14 2.4-1.83 1.82-2.4 1.14-2.75.4-3v-.18h1zm0-21.83h-1v-15.7h1z" fill="#ccc"/><path d="M1315.5 625.5h-1v-.5h1zM956 725h-1v-.5h1zM912.1 917.93l.38 2.92 1.1 2.64 1.75 2.27 2.28 1.76 2.65 1.1 2.92.37H939v2h-15.97l-3.3-.43-3.13-1.3-2.7-2.07-2.07-2.7-1.3-3.13-.43-3.3v-88.53h2zm0-110h-2V796h2z" fill="#ccc"/><path d="M912.1 796.03h-2V795h2zM940 931h-1.03v-2H940z" fill="#ccc"/><path d="M912.1 1042.73l.38 2.92 1.1 2.63 1.75 2.3 2.28 1.74 2.65 1.1 2.92.38H939v2h-15.97l-3.3-.44-3.13-1.3-2.7-2.06-2.07-2.7-1.3-3.13-.43-3.3V829.53h2zm0-234.8h-2V796h2z" fill="#ccc"/><path d="M912.1 796.03h-2V795h2zM940 1055.8h-1.03v-2H940z" fill="#ccc"/><path d="M912.1 1152.73l.38 2.92 1.1 2.63 1.75 2.3 2.28 1.74 2.65 1.1 2.92.38H939v2h-15.97l-3.3-.44-3.13-1.3-2.7-2.06-2.07-2.7-1.3-3.13-.43-3.3V829.53h2zm0-344.8h-2V796h2z" fill="#ccc"/><path d="M912.1 796.03h-2V795h2zM940 1165.8h-1.03v-2H940z" fill="#ccc"/><use xlink:href="#e" transform="matrix(1,0,0,1,735.2750000000001,807.9430396607451) translate(0 14.4)"/><use xlink:href="#f" transform="matrix(1,0,0,1,735.2750000000001,807.9430396607451) translate(27 14.4)"/><use xlink:href="#b" transform="matrix(1,0,0,1,735.2750000000001,807.9430396607451) translate(98.95 14.4)"/><use xlink:href="#g" transform="matrix(1,0,0,1,735.2750000000001,807.9430396607451) translate(135.85000000000002 14.4)"/><use xlink:href="#h" transform="matrix(1,0,0,1,735.2750000000001,807.9430396607451) translate(181.8 14.4)"/><use xlink:href="#d" transform="matrix(1,0,0,1,735.2750000000001,807.9430396607451) translate(269.65 14.4)"/><path d="M1315.5 663.03l-.42 3.2-1.24 3-2 2.6-2.6 2-3 1.25-3.2.42h-26.5l-3.02.4-2.76 1.14-2.4 1.83-1.82 2.4-1.14 2.75-.4 3v37.48h-1v-37.53l.42-3.2 1.24-3 2-2.6 2.6-2 3-1.25 3.2-.42h26.5l3.02-.4 2.76-1.14 2.4-1.83 1.82-2.4 1.14-2.75.4-3v-.18h1zm0-21.83h-1v-15.7h1z" fill="#ccc"/><path d="M1315.5 625.5h-1v-.5h1zM1265 725h-1v-.5h1zM1265.5 833.07l-.43 3.3-1.3 3.13-2.07 2.7-2.7 2.07-3.13 1.3-3.3.43h-76l-2.92.38-2.64 1.1-2.27 1.75-1.76 2.28-1.1 2.65-.37 2.92V894h-2v-37.07l.43-3.3 1.3-3.13 2.07-2.7 2.7-2.07 3.13-1.3 3.3-.43h76l2.92-.38 2.64-1.1 2.27-1.75 1.76-2.28 1.1-2.65.37-2.92V816.8h2zM1265.5 795.2h-2v-.2h2z" fill="#ccc"/><path d="M1165.5 895h-2v-1.03h2z" fill="#ccc"/><path d="M1112.9 966v136.8c0 6.62 5.37 12 12 12h14.1" stroke="#ccc" stroke-width="2" fill="none"/><path d="M1113.9 966.03h-2V965h2zM1140 1115.8h-1.03v-2h1.03z" fill="#ccc"/><path d="M1112.9 966v246.8c0 6.62 5.37 12 12 12h14.1" stroke="#ccc" stroke-width="2" fill="none"/><path d="M1113.9 966.03h-2V965h2zM1140 1225.8h-1.03v-2h1.03z" fill="#ccc"/><path d="M1112.9 966v356.8c0 6.62 5.37 12 12 12h14.1" stroke="#ccc" stroke-width="2" fill="none"/><path d="M1113.9 966.03h-2V965h2zM1140 1335.8h-1.03v-2h1.03zM1265.5 832.93l.38 2.92 1.1 2.64 1.75 2.27 2.28 1.76 2.65 1.1 2.92.37h76l3.3.43 3.13 1.3 2.7 2.07 2.07 2.7 1.3 3.13.43 3.3V894h-2v-36.93l-.38-2.92-1.1-2.64-1.75-2.27-2.28-1.76-2.65-1.1-2.92-.37h-76l-3.3-.43-3.13-1.3-2.7-2.07-2.07-2.7-1.3-3.13-.43-3.3V816.8h2zM1265.5 795.2h-2v-.2h2z" fill="#ccc"/><path d="M1365.5 895h-2v-1.03h2z" fill="#ccc"/><use xlink:href="#i" transform="matrix(1,0,0,1,1152.05,795.2) translate(0 14.4)"/><use xlink:href="#j" transform="matrix(1,0,0,1,1152.05,795.2) translate(16 14.4)"/><use xlink:href="#b" transform="matrix(1,0,0,1,1152.05,795.2) translate(80 14.4)"/><use xlink:href="#k" transform="matrix(1,0,0,1,1152.05,795.2) translate(116.9 14.4)"/><use xlink:href="#l" transform="matrix(1,0,0,1,1152.05,795.2) translate(151.9 14.4)"/><path d="M1312.9 980.8v122c0 6.62 5.37 12 12 12h14.1" stroke="#ccc" stroke-width="2" fill="none"/><path d="M1313.9 980.83h-2v-1.03h2zM1340 1115.8h-1.03v-2h1.03z" fill="#ccc"/><path d="M1312.9 980.8v232c0 6.62 5.37 12 12 12h14.1" stroke="#ccc" stroke-width="2" fill="none"/><path d="M1313.9 980.83h-2v-1.03h2zM1340 1225.8h-1.03v-2h1.03z" fill="#ccc"/><path d="M1312.9 980.8v342c0 6.62 5.37 12 12 12h14.1" stroke="#ccc" stroke-width="2" fill="none"/><path d="M1313.9 980.83h-2v-1.03h2zM1340 1335.8h-1.03v-2h1.03zM1315.5 662.97l.4 3 1.14 2.77 1.83 2.4 2.4 1.82 2.75 1.14 3 .4h325.5l3.22.42 3 1.24 2.6 2 2 2.6 1.24 3 .42 3.2v37.54h-1v-37.47l-.4-3-1.14-2.77-1.83-2.4-2.4-1.82-2.75-1.14-3-.4h-325.5l-3.22-.42-3-1.24-2.6-2-2-2.6-1.24-3-.42-3.2v-.24h1zm0-21.77h-1v-15.7h1zM1315.5 625.5h-1v-.5h1zM1665 725h-1v-.5h1zM1665.5 833.07l-.43 3.3-1.3 3.13-2.07 2.7-2.7 2.07-3.13 1.3-3.3.43h-76l-2.92.38-2.64 1.1-2.27 1.75-1.76 2.28-1.1 2.65-.37 2.92V894h-2v-37.07l.43-3.3 1.3-3.13 2.07-2.7 2.7-2.07 3.13-1.3 3.3-.43h76l2.92-.38 2.64-1.1 2.27-1.75 1.76-2.28 1.1-2.65.37-2.92V816.8h2zM1665.5 795.2h-2v-.2h2z" fill="#ccc"/><path d="M1565.5 895h-2v-1.03h2z" fill="#ccc"/><path d="M1512.9 966v136.8c0 6.62 5.37 12 12 12h14.1" stroke="#ccc" stroke-width="2" fill="none"/><path d="M1513.9 966.03h-2V965h2zM1540 1115.8h-1.03v-2h1.03z" fill="#ccc"/><path d="M1512.9 966v246.8c0 6.62 5.37 12 12 12h14.1" stroke="#ccc" stroke-width="2" fill="none"/><path d="M1513.9 966.03h-2V965h2zM1540 1225.8h-1.03v-2h1.03z" fill="#ccc"/><path d="M1512.9 966v356.8c0 6.62 5.37 12 12 12h14.1" stroke="#ccc" stroke-width="2" fill="none"/><path d="M1513.9 966.03h-2V965h2zM1540 1335.8h-1.03v-2h1.03zM1665.5 832.93l.38 2.92 1.1 2.64 1.75 2.27 2.28 1.76 2.65 1.1 2.92.37h76l3.3.43 3.13 1.3 2.7 2.07 2.07 2.7 1.3 3.13.43 3.3V894h-2v-36.93l-.38-2.92-1.1-2.64-1.75-2.27-2.28-1.76-2.65-1.1-2.92-.37h-76l-3.3-.43-3.13-1.3-2.7-2.07-2.07-2.7-1.3-3.13-.43-3.3V816.8h2zM1665.5 795.2h-2v-.2h2z" fill="#ccc"/><path d="M1765.5 895h-2v-1.03h2z" fill="#ccc"/><use xlink:href="#i" transform="matrix(1,0,0,1,1552.05,795.2) translate(0 14.4)"/><use xlink:href="#j" transform="matrix(1,0,0,1,1552.05,795.2) translate(16 14.4)"/><use xlink:href="#b" transform="matrix(1,0,0,1,1552.05,795.2) translate(80 14.4)"/><use xlink:href="#k" transform="matrix(1,0,0,1,1552.05,795.2) translate(116.9 14.4)"/><use xlink:href="#l" transform="matrix(1,0,0,1,1552.05,795.2) translate(151.9 14.4)"/><path d="M1712.9 980.8v122c0 6.62 5.37 12 12 12h14.1" stroke="#ccc" stroke-width="2" fill="none"/><path d="M1713.9 980.83h-2v-1.03h2zM1740 1115.8h-1.03v-2h1.03z" fill="#ccc"/><path d="M1712.9 980.8v232c0 6.62 5.37 12 12 12h14.1" stroke="#ccc" stroke-width="2" fill="none"/><path d="M1713.9 980.83h-2v-1.03h2zM1740 1225.8h-1.03v-2h1.03z" fill="#ccc"/><path d="M1712.9 980.8v342c0 6.62 5.37 12 12 12h14.1" stroke="#ccc" stroke-width="2" fill="none"/><path d="M1713.9 980.83h-2v-1.03h2zM1740 1335.8h-1.03v-2h1.03zM1316 662.93l.38 2.92 1.1 2.64 1.75 2.27 2.28 1.76 2.65 1.1 2.92.37h725.5l3.3.43 3.13 1.3 2.7 2.07 2.07 2.7 1.3 3.13.43 3.3V724h-2v-36.93l-.38-2.92-1.1-2.64-1.75-2.27-2.28-1.76-2.65-1.1-2.92-.37h-725.5l-3.3-.43-3.13-1.3-2.7-2.07-2.07-2.7-1.3-3.13-.43-3.3v-.27h2zm0-21.73h-2V626h2z" fill="#ccc"/><path d="M1316 626.03h-2V625h2zM2065.5 725h-2v-1.03h2z" fill="#ccc"/><use xlink:href="#i" transform="matrix(1,0,0,1,1133.6499999999996,641.2) translate(0 14.4)"/><use xlink:href="#m" transform="matrix(1,0,0,1,1133.6499999999996,641.2) translate(16 14.4)"/><use xlink:href="#b" transform="matrix(1,0,0,1,1133.6499999999996,641.2) translate(61.95 14.4)"/><use xlink:href="#g" transform="matrix(1,0,0,1,1133.6499999999996,641.2) translate(98.85000000000001 14.4)"/><use xlink:href="#n" transform="matrix(1,0,0,1,1133.6499999999996,641.2) translate(144.8 14.4)"/><use xlink:href="#o" transform="matrix(1,0,0,1,1133.6499999999996,641.2) translate(217.8 14.4)"/><use xlink:href="#k" transform="matrix(1,0,0,1,1133.6499999999996,641.2) translate(252.8 14.4)"/><use xlink:href="#p" transform="matrix(1,0,0,1,1133.6499999999996,641.2) translate(287.8 14.4)"/><path d="M2065.5 833.07l-.43 3.3-1.3 3.13-2.07 2.7-2.7 2.07-3.13 1.3-3.3.43h-76l-2.92.38-2.64 1.1-2.27 1.75-1.76 2.28-1.1 2.65-.37 2.92V894h-2v-37.07l.43-3.3 1.3-3.13 2.07-2.7 2.7-2.07 3.13-1.3 3.3-.43h76l2.92-.38 2.64-1.1 2.27-1.75 1.76-2.28 1.1-2.65.37-2.92v-8.62h2zm0-30.36h-2V796h2z" fill="#ccc"/><path d="M2065.5 796.03h-2V795h2zM1965.5 895h-2v-1.03h2z" fill="#ccc"/><path d="M1912.9 966v136.8c0 6.62 5.37 12 12 12h14.1" stroke="#ccc" stroke-width="2" fill="none"/><path d="M1913.9 966.03h-2V965h2zM1940 1115.8h-1.03v-2h1.03z" fill="#ccc"/><path d="M1912.9 966v246.8c0 6.62 5.37 12 12 12h14.1" stroke="#ccc" stroke-width="2" fill="none"/><path d="M1913.9 966.03h-2V965h2zM1940 1225.8h-1.03v-2h1.03z" fill="#ccc"/><path d="M1912.9 966v356.8c0 6.62 5.37 12 12 12h14.1" stroke="#ccc" stroke-width="2" fill="none"/><path d="M1913.9 966.03h-2V965h2zM1940 1335.8h-1.03v-2h1.03zM2065.5 832.93l.38 2.92 1.1 2.64 1.75 2.27 2.28 1.76 2.65 1.1 2.92.37h76l3.3.43 3.13 1.3 2.7 2.07 2.07 2.7 1.3 3.13.43 3.3V894h-2v-36.93l-.38-2.92-1.1-2.64-1.75-2.27-2.28-1.76-2.65-1.1-2.92-.37h-76l-3.3-.43-3.13-1.3-2.7-2.07-2.07-2.7-1.3-3.13-.43-3.3v-8.76h2zm0-30.22h-2V796h2z" fill="#ccc"/><path d="M2065.5 796.03h-2V795h2zM2165.5 895h-2v-1.03h2z" fill="#ccc"/><use xlink:href="#i" transform="matrix(1,0,0,1,1952.05,802.7081097396406) translate(0 14.4)"/><use xlink:href="#j" transform="matrix(1,0,0,1,1952.05,802.7081097396406) translate(16 14.4)"/><use xlink:href="#b" transform="matrix(1,0,0,1,1952.05,802.7081097396406) translate(80 14.4)"/><use xlink:href="#k" transform="matrix(1,0,0,1,1952.05,802.7081097396406) translate(116.9 14.4)"/><use xlink:href="#l" transform="matrix(1,0,0,1,1952.05,802.7081097396406) translate(151.9 14.4)"/><path d="M2112.9 980.8v122c0 6.62 5.37 12 12 12h14.1" stroke="#ccc" stroke-width="2" fill="none"/><path d="M2113.9 980.83h-2v-1.03h2zM2140 1115.8h-1.03v-2h1.03z" fill="#ccc"/><path d="M2112.9 980.8v232c0 6.62 5.37 12 12 12h14.1" stroke="#ccc" stroke-width="2" fill="none"/><path d="M2113.9 980.83h-2v-1.03h2zM2140 1225.8h-1.03v-2h1.03z" fill="#ccc"/><path d="M2112.9 980.8v342c0 6.62 5.37 12 12 12h14.1" stroke="#ccc" stroke-width="2" fill="none"/><path d="M2113.9 980.83h-2v-1.03h2zM2140 1335.8h-1.03v-2h1.03zM1585.5 554.5h-1v-45.03h1zm-1-66.63h-1V455.5h1zM1584.5 455.5h-1v-.5h1zM1585.5 555h-1v-.5h1z" fill="#ccc"/><path d="M1842.07 504l3.3.43 3.13 1.3 2.7 2.07 2.07 2.7 1.3 3.13.43 3.3V554h-2v-36.93l-.38-2.92-1.1-2.64-1.75-2.27-2.28-1.76-2.65-1.1-2.92-.37h-123.08v-2zM1585 487.87h-2V456h2z" fill="#ccc"/><path d="M1585 456.03h-2V455h2zM1855 555h-2v-1.03h2z" fill="#ccc"/><use xlink:href="#e" transform="matrix(1,0,0,1,1449.15,487.8666666666667) translate(0 14.4)"/><use xlink:href="#q" transform="matrix(1,0,0,1,1449.15,487.8666666666667) translate(27 14.4)"/><use xlink:href="#b" transform="matrix(1,0,0,1,1449.15,487.8666666666667) translate(129.85000000000002 14.4)"/><use xlink:href="#g" transform="matrix(1,0,0,1,1449.15,487.8666666666667) translate(166.75000000000003 14.4)"/><use xlink:href="#r" transform="matrix(1,0,0,1,1449.15,487.8666666666667) translate(212.70000000000005 14.4)"/><path d="M1464 393c0-4.42 3.58-8 8-8h224c4.42 0 8 3.58 8 8v54c0 4.42-3.58 8-8 8h-224c-4.42 0-8-3.58-8-8z" stroke="#000" stroke-opacity="0" fill="#4397ff"/><use xlink:href="#s" transform="matrix(1,0,0,1,1474,409.2) translate(59.074999999999996 14.4)"/><path d="M1189.5 563c0-4.42 3.58-8 8-8h235c4.42 0 8 3.58 8 8v54c0 4.42-3.58 8-8 8h-235c-4.42 0-8-3.58-8-8z" stroke="#000" stroke-opacity="0" fill="#75b2ff"/><use xlink:href="#t" transform="matrix(1,0,0,1,1199.5,579.2) translate(13.149999999999977 14.4)"/><use xlink:href="#u" transform="matrix(1,0,0,1,1199.5,579.2) translate(69.14999999999998 14.4)"/><use xlink:href="#v" transform="matrix(1,0,0,1,1199.5,579.2) translate(84.14999999999998 14.4)"/><use xlink:href="#w" transform="matrix(1,0,0,1,1199.5,579.2) translate(167 14.4)"/><path d="M510 733c0-4.42 3.58-8 8-8h93c4.42 0 8 3.58 8 8v54c0 4.42-3.58 8-8 8h-93c-4.42 0-8-3.58-8-8z" stroke="#000" stroke-opacity="0" fill="#0c7cba"/><use xlink:href="#x" transform="matrix(1,0,0,1,520,738.4) translate(17.549999999999997 14.4)"/><use xlink:href="#y" transform="matrix(1,0,0,1,520,738.4) translate(11 36)"/><path d="M300 903c0-4.42 3.58-8 8-8h113c4.42 0 8 3.58 8 8v54c0 4.42-3.58 8-8 8H308c-4.42 0-8-3.58-8-8z" stroke="#000" stroke-opacity="0" fill="#e9e9ea"/><use xlink:href="#z" transform="matrix(1,0,0,1,310,908.4) translate(1.5750000000000028 14.4)"/><use xlink:href="#A" transform="matrix(1,0,0,1,310,908.4) translate(66.425 14.4)"/><use xlink:href="#B" transform="matrix(1,0,0,1,310,908.4) translate(17.549999999999997 36)"/><use xlink:href="#C" transform="matrix(1,0,0,1,310,908.4) translate(37.55 36)"/><path d="M340 1087.8c0-4.42 3.58-8 8-8h104c4.42 0 8 3.58 8 8v54c0 4.42-3.58 8-8 8H348c-4.42 0-8-3.58-8-8z" stroke="#000" stroke-opacity="0" fill="#e9e9ea"/><use xlink:href="#D" transform="matrix(1,0,0,1,350,1093.196875) translate(18.549999999999997 14.4)"/><use xlink:href="#E" transform="matrix(1,0,0,1,350,1093.196875) translate(31.575 36)"/><path d="M340 1197.8c0-4.42 3.58-8 8-8h104c4.42 0 8 3.58 8 8v54c0 4.42-3.58 8-8 8H348c-4.42 0-8-3.58-8-8z" stroke="#000" stroke-opacity="0" fill="#e9e9ea"/><use xlink:href="#D" transform="matrix(1,0,0,1,350,1203.196875) translate(18.549999999999997 14.4)"/><use xlink:href="#F" transform="matrix(1,0,0,1,350,1203.196875) translate(24.549999999999997 36)"/><path d="M340 1307.8c0-4.42 3.58-8 8-8h104c4.42 0 8 3.58 8 8v54c0 4.42-3.58 8-8 8H348c-4.42 0-8-3.58-8-8z" stroke="#000" stroke-opacity="0" fill="#e9e9ea"/><use xlink:href="#G" transform="matrix(1,0,0,1,350,1313.196875) translate(22.549999999999997 14.4)"/><use xlink:href="#H" transform="matrix(1,0,0,1,350,1313.196875) translate(2.0749999999999957 36)"/><path d="M500 903c0-4.42 3.58-8 8-8h113c4.42 0 8 3.58 8 8v68.8c0 4.42-3.58 8-8 8H508c-4.42 0-8-3.58-8-8z" stroke="#000" stroke-opacity="0" fill="#e9e9ea"/><use xlink:href="#I" transform="matrix(1,0,0,1,510,905) translate(17 14.4)"/><use xlink:href="#J" transform="matrix(1,0,0,1,510,905) translate(13.024999999999999 36)"/><use xlink:href="#K" transform="matrix(1,0,0,1,510,905) translate(77.975 36)"/><use xlink:href="#L" transform="matrix(1,0,0,1,510,905) translate(17.549999999999997 57.6)"/><path d="M540 1087.8c0-4.42 3.58-8 8-8h104c4.42 0 8 3.58 8 8v54c0 4.42-3.58 8-8 8H548c-4.42 0-8-3.58-8-8z" stroke="#000" stroke-opacity="0" fill="#e9e9ea"/><use xlink:href="#M" transform="matrix(1,0,0,1,550,1093.196875) translate(8.574999999999996 14.4)"/><use xlink:href="#E" transform="matrix(1,0,0,1,550,1093.196875) translate(31.575 36)"/><path d="M540 1197.8c0-4.42 3.58-8 8-8h104c4.42 0 8 3.58 8 8v54c0 4.42-3.58 8-8 8H548c-4.42 0-8-3.58-8-8z" stroke="#000" stroke-opacity="0" fill="#e9e9ea"/><use xlink:href="#M" transform="matrix(1,0,0,1,550,1203.196875) translate(8.574999999999996 14.4)"/><use xlink:href="#F" transform="matrix(1,0,0,1,550,1203.196875) translate(24.549999999999997 36)"/><path d="M540 1307.8c0-4.42 3.58-8 8-8h104c4.42 0 8 3.58 8 8v54c0 4.42-3.58 8-8 8H548c-4.42 0-8-3.58-8-8z" stroke="#000" stroke-opacity="0" fill="#e9e9ea"/><use xlink:href="#N" transform="matrix(1,0,0,1,550,1313.196875) translate(12.549999999999997 14.4)"/><use xlink:href="#O" transform="matrix(1,0,0,1,550,1313.196875) translate(2.0749999999999957 36)"/><path d="M700 903c0-4.42 3.58-8 8-8h113c4.42 0 8 3.58 8 8v68.8c0 4.42-3.58 8-8 8H708c-4.42 0-8-3.58-8-8z" stroke="#000" stroke-opacity="0" fill="#e9e9ea"/><use xlink:href="#I" transform="matrix(1,0,0,1,710,905) translate(17 14.4)"/><use xlink:href="#J" transform="matrix(1,0,0,1,710,905) translate(13.024999999999999 36)"/><use xlink:href="#K" transform="matrix(1,0,0,1,710,905) translate(77.975 36)"/><use xlink:href="#L" transform="matrix(1,0,0,1,710,905) translate(17.549999999999997 57.6)"/><path d="M740 1087.8c0-4.42 3.58-8 8-8h104c4.42 0 8 3.58 8 8v54c0 4.42-3.58 8-8 8H748c-4.42 0-8-3.58-8-8z" stroke="#000" stroke-opacity="0" fill="#e9e9ea"/><use xlink:href="#M" transform="matrix(1,0,0,1,750,1093.196875) translate(8.574999999999996 14.4)"/><use xlink:href="#E" transform="matrix(1,0,0,1,750,1093.196875) translate(31.575 36)"/><path d="M740 1197.8c0-4.42 3.58-8 8-8h104c4.42 0 8 3.58 8 8v54c0 4.42-3.58 8-8 8H748c-4.42 0-8-3.58-8-8z" stroke="#000" stroke-opacity="0" fill="#e9e9ea"/><use xlink:href="#M" transform="matrix(1,0,0,1,750,1203.196875) translate(8.574999999999996 14.4)"/><use xlink:href="#F" transform="matrix(1,0,0,1,750,1203.196875) translate(24.549999999999997 36)"/><path d="M740 1307.8c0-4.42 3.58-8 8-8h104c4.42 0 8 3.58 8 8v54c0 4.42-3.58 8-8 8H748c-4.42 0-8-3.58-8-8z" stroke="#000" stroke-opacity="0" fill="#e9e9ea"/><use xlink:href="#N" transform="matrix(1,0,0,1,750,1313.196875) translate(12.549999999999997 14.4)"/><use xlink:href="#O" transform="matrix(1,0,0,1,750,1313.196875) translate(2.0749999999999957 36)"/><path d="M900 733c0-4.42 3.58-8 8-8h95c4.42 0 8 3.58 8 8v54c0 4.42-3.58 8-8 8h-95c-4.42 0-8-3.58-8-8z" stroke="#000" stroke-opacity="0" fill="#0c7cba"/><use xlink:href="#P" transform="matrix(1,0,0,1,910,738.4) translate(2.5999999999999943 14.4)"/><use xlink:href="#y" transform="matrix(1,0,0,1,910,738.4) translate(11.5 36)"/><path d="M940 903c0-4.42 3.58-8 8-8h104c4.42 0 8 3.58 8 8v54c0 4.42-3.58 8-8 8H948c-4.42 0-8-3.58-8-8z" stroke="#000" stroke-opacity="0" fill="#e9e9ea"/><use xlink:href="#Q" transform="matrix(1,0,0,1,950,908.4) translate(7.599999999999994 14.4)"/><use xlink:href="#R" transform="matrix(1,0,0,1,950,908.4) translate(4 36)"/><use xlink:href="#S" transform="matrix(1,0,0,1,950,908.4) translate(9 36)"/><use xlink:href="#T" transform="matrix(1,0,0,1,950,908.4) translate(87 36)"/><path d="M940 1027.8c0-4.42 3.58-8 8-8h104c4.42 0 8 3.58 8 8v54c0 4.42-3.58 8-8 8H948c-4.42 0-8-3.58-8-8z" stroke="#000" stroke-opacity="0" fill="#e9e9ea"/><use xlink:href="#U" transform="matrix(1,0,0,1,950,1033.196875) translate(7.599999999999994 14.4)"/><use xlink:href="#V" transform="matrix(1,0,0,1,950,1033.196875) translate(6.5 36)"/><use xlink:href="#W" transform="matrix(1,0,0,1,950,1033.196875) translate(84.5 36)"/><path d="M940 1137.8c0-4.42 3.58-8 8-8h104c4.42 0 8 3.58 8 8v54c0 4.42-3.58 8-8 8H948c-4.42 0-8-3.58-8-8z" stroke="#000" stroke-opacity="0" fill="#e9e9ea"/><use xlink:href="#U" transform="matrix(1,0,0,1,950,1143.196875) translate(7.599999999999994 14.4)"/><use xlink:href="#V" transform="matrix(1,0,0,1,950,1143.196875) translate(6.5 36)"/><use xlink:href="#X" transform="matrix(1,0,0,1,950,1143.196875) translate(84.5 36)"/><path d="M1204.5 733c0-4.42 3.58-8 8-8h104c4.42 0 8 3.58 8 8v54c0 4.42-3.58 8-8 8h-104c-4.42 0-8-3.58-8-8z" stroke="#000" stroke-opacity="0" fill="#d7e9ff"/><g><use xlink:href="#Y" transform="matrix(1,0,0,1,1214.5,738.4) translate(11.5 14.4)"/><use xlink:href="#Z" transform="matrix(1,0,0,1,1214.5,738.4) translate(78.5 14.4)"/><use xlink:href="#aa" transform="matrix(1,0,0,1,1214.5,738.4) translate(16.525 36)"/></g><path d="M1100 903c0-4.42 3.58-8 8-8h113c4.42 0 8 3.58 8 8v54c0 4.42-3.58 8-8 8h-113c-4.42 0-8-3.58-8-8z" stroke="#000" stroke-opacity="0" fill="#e9e9ea"/><g><use xlink:href="#z" transform="matrix(1,0,0,1,1110,908.4) translate(1.5750000000000028 14.4)"/><use xlink:href="#A" transform="matrix(1,0,0,1,1110,908.4) translate(66.425 14.4)"/><use xlink:href="#B" transform="matrix(1,0,0,1,1110,908.4) translate(8 36)"/><use xlink:href="#ab" transform="matrix(1,0,0,1,1110,908.4) translate(28 36)"/><use xlink:href="#T" transform="matrix(1,0,0,1,1110,908.4) translate(92 36)"/></g><path d="M1140 1087.8c0-4.42 3.58-8 8-8h104c4.42 0 8 3.58 8 8v54c0 4.42-3.58 8-8 8h-104c-4.42 0-8-3.58-8-8z" stroke="#000" stroke-opacity="0" fill="#e9e9ea"/><g><use xlink:href="#D" transform="matrix(1,0,0,1,1150,1093.196875) translate(18.549999999999997 14.4)"/><use xlink:href="#E" transform="matrix(1,0,0,1,1150,1093.196875) translate(31.575 36)"/></g><path d="M1140 1197.8c0-4.42 3.58-8 8-8h104c4.42 0 8 3.58 8 8v54c0 4.42-3.58 8-8 8h-104c-4.42 0-8-3.58-8-8z" stroke="#000" stroke-opacity="0" fill="#e9e9ea"/><g><use xlink:href="#D" transform="matrix(1,0,0,1,1150,1203.196875) translate(18.549999999999997 14.4)"/><use xlink:href="#F" transform="matrix(1,0,0,1,1150,1203.196875) translate(24.549999999999997 36)"/></g><path d="M1140 1307.8c0-4.42 3.58-8 8-8h104c4.42 0 8 3.58 8 8v54c0 4.42-3.58 8-8 8h-104c-4.42 0-8-3.58-8-8z" stroke="#000" stroke-opacity="0" fill="#e9e9ea"/><g><use xlink:href="#G" transform="matrix(1,0,0,1,1150,1313.196875) translate(22.549999999999997 14.4)"/><use xlink:href="#H" transform="matrix(1,0,0,1,1150,1313.196875) translate(2.0749999999999957 36)"/></g><path d="M1300 903c0-4.42 3.58-8 8-8h113c4.42 0 8 3.58 8 8v68.8c0 4.42-3.58 8-8 8h-113c-4.42 0-8-3.58-8-8z" stroke="#000" stroke-opacity="0" fill="#e9e9ea"/><g><use xlink:href="#I" transform="matrix(1,0,0,1,1310,905) translate(17 14.4)"/><use xlink:href="#ac" transform="matrix(1,0,0,1,1310,905) translate(18.025 36)"/><use xlink:href="#K" transform="matrix(1,0,0,1,1310,905) translate(72.975 36)"/><use xlink:href="#ad" transform="matrix(1,0,0,1,1310,905) translate(20.5 57.6)"/></g><path d="M1340 1087.8c0-4.42 3.58-8 8-8h104c4.42 0 8 3.58 8 8v54c0 4.42-3.58 8-8 8h-104c-4.42 0-8-3.58-8-8z" stroke="#000" stroke-opacity="0" fill="#e9e9ea"/><g><use xlink:href="#M" transform="matrix(1,0,0,1,1350,1093.196875) translate(8.574999999999996 14.4)"/><use xlink:href="#E" transform="matrix(1,0,0,1,1350,1093.196875) translate(31.575 36)"/></g><path d="M1340 1197.8c0-4.42 3.58-8 8-8h104c4.42 0 8 3.58 8 8v54c0 4.42-3.58 8-8 8h-104c-4.42 0-8-3.58-8-8z" stroke="#000" stroke-opacity="0" fill="#e9e9ea"/><g><use xlink:href="#M" transform="matrix(1,0,0,1,1350,1203.196875) translate(8.574999999999996 14.4)"/><use xlink:href="#F" transform="matrix(1,0,0,1,1350,1203.196875) translate(24.549999999999997 36)"/></g><path d="M1340 1307.8c0-4.42 3.58-8 8-8h104c4.42 0 8 3.58 8 8v54c0 4.42-3.58 8-8 8h-104c-4.42 0-8-3.58-8-8z" stroke="#000" stroke-opacity="0" fill="#e9e9ea"/><g><use xlink:href="#N" transform="matrix(1,0,0,1,1350,1313.196875) translate(12.549999999999997 14.4)"/><use xlink:href="#O" transform="matrix(1,0,0,1,1350,1313.196875) translate(2.0749999999999957 36)"/></g><path d="M1609 733c0-4.42 3.58-8 8-8h95c4.42 0 8 3.58 8 8v54c0 4.42-3.58 8-8 8h-95c-4.42 0-8-3.58-8-8z" stroke="#000" stroke-opacity="0" fill="#d7e9ff"/><g><use xlink:href="#Y" transform="matrix(1,0,0,1,1619,738.4) translate(7 14.4)"/><use xlink:href="#ae" transform="matrix(1,0,0,1,1619,738.4) translate(74 14.4)"/><use xlink:href="#aa" transform="matrix(1,0,0,1,1619,738.4) translate(12.024999999999999 36)"/></g><path d="M1500 903c0-4.42 3.58-8 8-8h113c4.42 0 8 3.58 8 8v54c0 4.42-3.58 8-8 8h-113c-4.42 0-8-3.58-8-8z" stroke="#000" stroke-opacity="0" fill="#e9e9ea"/><g><use xlink:href="#z" transform="matrix(1,0,0,1,1510,908.4) translate(1.5750000000000028 14.4)"/><use xlink:href="#A" transform="matrix(1,0,0,1,1510,908.4) translate(66.425 14.4)"/><use xlink:href="#B" transform="matrix(1,0,0,1,1510,908.4) translate(8 36)"/><use xlink:href="#ab" transform="matrix(1,0,0,1,1510,908.4) translate(28 36)"/><use xlink:href="#W" transform="matrix(1,0,0,1,1510,908.4) translate(92 36)"/></g><path d="M1540 1087.8c0-4.42 3.58-8 8-8h104c4.42 0 8 3.58 8 8v54c0 4.42-3.58 8-8 8h-104c-4.42 0-8-3.58-8-8z" stroke="#000" stroke-opacity="0" fill="#e9e9ea"/><g><use xlink:href="#D" transform="matrix(1,0,0,1,1550,1093.196875) translate(18.549999999999997 14.4)"/><use xlink:href="#E" transform="matrix(1,0,0,1,1550,1093.196875) translate(31.575 36)"/></g><path d="M1540 1197.8c0-4.42 3.58-8 8-8h104c4.42 0 8 3.58 8 8v54c0 4.42-3.58 8-8 8h-104c-4.42 0-8-3.58-8-8z" stroke="#000" stroke-opacity="0" fill="#e9e9ea"/><g><use xlink:href="#D" transform="matrix(1,0,0,1,1550,1203.196875) translate(18.549999999999997 14.4)"/><use xlink:href="#F" transform="matrix(1,0,0,1,1550,1203.196875) translate(24.549999999999997 36)"/></g><path d="M1540 1307.8c0-4.42 3.58-8 8-8h104c4.42 0 8 3.58 8 8v54c0 4.42-3.58 8-8 8h-104c-4.42 0-8-3.58-8-8z" stroke="#000" stroke-opacity="0" fill="#e9e9ea"/><g><use xlink:href="#G" transform="matrix(1,0,0,1,1550,1313.196875) translate(22.549999999999997 14.4)"/><use xlink:href="#H" transform="matrix(1,0,0,1,1550,1313.196875) translate(2.0749999999999957 36)"/></g><path d="M1700 903c0-4.42 3.58-8 8-8h113c4.42 0 8 3.58 8 8v68.8c0 4.42-3.58 8-8 8h-113c-4.42 0-8-3.58-8-8z" stroke="#000" stroke-opacity="0" fill="#e9e9ea"/><g><use xlink:href="#I" transform="matrix(1,0,0,1,1710,905) translate(17 14.4)"/><use xlink:href="#J" transform="matrix(1,0,0,1,1710,905) translate(13.024999999999999 36)"/><use xlink:href="#K" transform="matrix(1,0,0,1,1710,905) translate(77.975 36)"/><use xlink:href="#ab" transform="matrix(1,0,0,1,1710,905) translate(18 57.6)"/><use xlink:href="#W" transform="matrix(1,0,0,1,1710,905) translate(82 57.6)"/></g><path d="M1740 1087.8c0-4.42 3.58-8 8-8h104c4.42 0 8 3.58 8 8v54c0 4.42-3.58 8-8 8h-104c-4.42 0-8-3.58-8-8z" stroke="#000" stroke-opacity="0" fill="#e9e9ea"/><g><use xlink:href="#M" transform="matrix(1,0,0,1,1750,1093.196875) translate(8.574999999999996 14.4)"/><use xlink:href="#E" transform="matrix(1,0,0,1,1750,1093.196875) translate(31.575 36)"/></g><path d="M1740 1197.8c0-4.42 3.58-8 8-8h104c4.42 0 8 3.58 8 8v54c0 4.42-3.58 8-8 8h-104c-4.42 0-8-3.58-8-8z" stroke="#000" stroke-opacity="0" fill="#e9e9ea"/><g><use xlink:href="#M" transform="matrix(1,0,0,1,1750,1203.196875) translate(8.574999999999996 14.4)"/><use xlink:href="#F" transform="matrix(1,0,0,1,1750,1203.196875) translate(24.549999999999997 36)"/></g><path d="M1740 1307.8c0-4.42 3.58-8 8-8h104c4.42 0 8 3.58 8 8v54c0 4.42-3.58 8-8 8h-104c-4.42 0-8-3.58-8-8z" stroke="#000" stroke-opacity="0" fill="#e9e9ea"/><g><use xlink:href="#N" transform="matrix(1,0,0,1,1750,1313.196875) translate(12.549999999999997 14.4)"/><use xlink:href="#O" transform="matrix(1,0,0,1,1750,1313.196875) translate(2.0749999999999957 36)"/></g><path d="M2009 733c0-4.42 3.58-8 8-8h95c4.42 0 8 3.58 8 8v54c0 4.42-3.58 8-8 8h-95c-4.42 0-8-3.58-8-8z" stroke="#000" stroke-opacity="0" fill="#d7e9ff"/><g><use xlink:href="#Y" transform="matrix(1,0,0,1,2019,738.4) translate(7 14.4)"/><use xlink:href="#af" transform="matrix(1,0,0,1,2019,738.4) translate(74 14.4)"/><use xlink:href="#aa" transform="matrix(1,0,0,1,2019,738.4) translate(12.024999999999999 36)"/></g><path d="M1900 903c0-4.42 3.58-8 8-8h113c4.42 0 8 3.58 8 8v54c0 4.42-3.58 8-8 8h-113c-4.42 0-8-3.58-8-8z" stroke="#000" stroke-opacity="0" fill="#e9e9ea"/><g><use xlink:href="#z" transform="matrix(1,0,0,1,1910,908.4) translate(1.5750000000000028 14.4)"/><use xlink:href="#A" transform="matrix(1,0,0,1,1910,908.4) translate(66.425 14.4)"/><use xlink:href="#B" transform="matrix(1,0,0,1,1910,908.4) translate(8 36)"/><use xlink:href="#ab" transform="matrix(1,0,0,1,1910,908.4) translate(28 36)"/><use xlink:href="#X" transform="matrix(1,0,0,1,1910,908.4) translate(92 36)"/></g><path d="M1940 1087.8c0-4.42 3.58-8 8-8h104c4.42 0 8 3.58 8 8v54c0 4.42-3.58 8-8 8h-104c-4.42 0-8-3.58-8-8z" stroke="#000" stroke-opacity="0" fill="#e9e9ea"/><g><use xlink:href="#D" transform="matrix(1,0,0,1,1950,1093.196875) translate(18.549999999999997 14.4)"/><use xlink:href="#E" transform="matrix(1,0,0,1,1950,1093.196875) translate(31.575 36)"/></g><path d="M1940 1197.8c0-4.42 3.58-8 8-8h104c4.42 0 8 3.58 8 8v54c0 4.42-3.58 8-8 8h-104c-4.42 0-8-3.58-8-8z" stroke="#000" stroke-opacity="0" fill="#e9e9ea"/><g><use xlink:href="#D" transform="matrix(1,0,0,1,1950,1203.196875) translate(18.549999999999997 14.4)"/><use xlink:href="#F" transform="matrix(1,0,0,1,1950,1203.196875) translate(24.549999999999997 36)"/></g><path d="M1940 1307.8c0-4.42 3.58-8 8-8h104c4.42 0 8 3.58 8 8v54c0 4.42-3.58 8-8 8h-104c-4.42 0-8-3.58-8-8z" stroke="#000" stroke-opacity="0" fill="#e9e9ea"/><g><use xlink:href="#G" transform="matrix(1,0,0,1,1950,1313.196875) translate(22.549999999999997 14.4)"/><use xlink:href="#H" transform="matrix(1,0,0,1,1950,1313.196875) translate(2.0749999999999957 36)"/></g><path d="M2100 903c0-4.42 3.58-8 8-8h113c4.42 0 8 3.58 8 8v68.8c0 4.42-3.58 8-8 8h-113c-4.42 0-8-3.58-8-8z" stroke="#000" stroke-opacity="0" fill="#e9e9ea"/><g><use xlink:href="#I" transform="matrix(1,0,0,1,2110,905) translate(17 14.4)"/><use xlink:href="#J" transform="matrix(1,0,0,1,2110,905) translate(13.024999999999999 36)"/><use xlink:href="#K" transform="matrix(1,0,0,1,2110,905) translate(77.975 36)"/><use xlink:href="#ab" transform="matrix(1,0,0,1,2110,905) translate(18 57.6)"/><use xlink:href="#X" transform="matrix(1,0,0,1,2110,905) translate(82 57.6)"/></g><path d="M2140 1087.8c0-4.42 3.58-8 8-8h104c4.42 0 8 3.58 8 8v54c0 4.42-3.58 8-8 8h-104c-4.42 0-8-3.58-8-8z" stroke="#000" stroke-opacity="0" fill="#e9e9ea"/><g><use xlink:href="#M" transform="matrix(1,0,0,1,2150,1093.196875) translate(8.574999999999996 14.4)"/><use xlink:href="#E" transform="matrix(1,0,0,1,2150,1093.196875) translate(31.575 36)"/></g><path d="M2140 1197.8c0-4.42 3.58-8 8-8h104c4.42 0 8 3.58 8 8v54c0 4.42-3.58 8-8 8h-104c-4.42 0-8-3.58-8-8z" stroke="#000" stroke-opacity="0" fill="#e9e9ea"/><g><use xlink:href="#M" transform="matrix(1,0,0,1,2150,1203.196875) translate(8.574999999999996 14.4)"/><use xlink:href="#F" transform="matrix(1,0,0,1,2150,1203.196875) translate(24.549999999999997 36)"/></g><path d="M2140 1307.8c0-4.42 3.58-8 8-8h104c4.42 0 8 3.58 8 8v54c0 4.42-3.58 8-8 8h-104c-4.42 0-8-3.58-8-8z" stroke="#000" stroke-opacity="0" fill="#e9e9ea"/><g><use xlink:href="#N" transform="matrix(1,0,0,1,2150,1313.196875) translate(12.549999999999997 14.4)"/><use xlink:href="#O" transform="matrix(1,0,0,1,2150,1313.196875) translate(2.0749999999999957 36)"/></g><path d="M1460.5 563c0-4.42 3.58-8 8-8h233c4.42 0 8 3.58 8 8v54c0 4.42-3.58 8-8 8h-233c-4.42 0-8-3.58-8-8z" stroke="#000" stroke-opacity="0" fill="#75b2ff"/><g><use xlink:href="#t" transform="matrix(1,0,0,1,1470.5,579.2) translate(4.6499999999999915 14.4)"/><use xlink:href="#ag" transform="matrix(1,0,0,1,1470.5,579.2) translate(60.64999999999999 14.4)"/><use xlink:href="#ah" transform="matrix(1,0,0,1,1470.5,579.2) translate(75.64999999999999 14.4)"/><use xlink:href="#ai" transform="matrix(1,0,0,1,1470.5,579.2) translate(163.5 14.4)"/></g><path d="M1729.5 563c0-4.42 3.58-8 8-8h233c4.42 0 8 3.58 8 8v54c0 4.42-3.58 8-8 8h-233c-4.42 0-8-3.58-8-8z" stroke="#000" stroke-opacity="0" fill="#75b2ff"/><g><use xlink:href="#t" transform="matrix(1,0,0,1,1739.5,579.2) translate(11.149999999999991 14.4)"/><use xlink:href="#aj" transform="matrix(1,0,0,1,1739.5,579.2) translate(67.14999999999999 14.4)"/><use xlink:href="#ak" transform="matrix(1,0,0,1,1739.5,579.2) translate(82.14999999999999 14.4)"/><use xlink:href="#al" transform="matrix(1,0,0,1,1739.5,579.2) translate(160.95 14.4)"/></g><defs><path fill="#333" d="M30-248c87 1 191-15 191 75 0 78-77 80-158 76V0H30v-248zm33 125c57 0 124 11 124-50 0-59-68-47-124-48v98" id="am"/><path fill="#333" d="M114-163C36-179 61-72 57 0H25l-1-190h30c1 12-1 29 2 39 6-27 23-49 58-41v29" id="an"/><path fill="#333" d="M100-194c62-1 85 37 85 99 1 63-27 99-86 99S16-35 15-95c0-66 28-99 85-99zM99-20c44 1 53-31 53-75 0-43-8-75-51-75s-53 32-53 75 10 74 51 75" id="ao"/><path fill="#333" d="M101-234c-31-9-42 10-38 44h38v23H63V0H32v-167H5v-23h27c-7-52 17-82 69-68v24" id="ap"/><path fill="#333" d="M100-194c63 0 86 42 84 106H49c0 40 14 67 53 68 26 1 43-12 49-29l28 8c-11 28-37 45-77 45C44 4 14-33 15-96c1-61 26-98 85-98zm52 81c6-60-76-77-97-28-3 7-6 17-6 28h103" id="aq"/><path fill="#333" d="M135-143c-3-34-86-38-87 0 15 53 115 12 119 90S17 21 10-45l28-5c4 36 97 45 98 0-10-56-113-15-118-90-4-57 82-63 122-42 12 7 21 19 24 35" id="ar"/><g id="a"><use transform="matrix(0.05,0,0,0.05,0,0)" xlink:href="#am"/><use transform="matrix(0.05,0,0,0.05,12,0)" xlink:href="#an"/><use transform="matrix(0.05,0,0,0.05,17.95,0)" xlink:href="#ao"/><use transform="matrix(0.05,0,0,0.05,27.950000000000003,0)" xlink:href="#ap"/><use transform="matrix(0.05,0,0,0.05,32.95,0)" xlink:href="#aq"/><use transform="matrix(0.05,0,0,0.05,42.95,0)" xlink:href="#ar"/><use transform="matrix(0.05,0,0,0.05,51.95,0)" xlink:href="#ar"/><use transform="matrix(0.05,0,0,0.05,60.95,0)" xlink:href="#ao"/><use transform="matrix(0.05,0,0,0.05,70.95,0)" xlink:href="#an"/></g><path fill="#333" d="M206 0h-36l-40-164L89 0H53L-1-190h32L70-26l43-164h34l41 164 42-164h31" id="as"/><path fill="#333" d="M24-231v-30h32v30H24zM24 0v-190h32V0H24" id="at"/><path fill="#333" d="M59-47c-2 24 18 29 38 22v24C64 9 27 4 27-40v-127H5v-23h24l9-43h21v43h35v23H59v120" id="au"/><path fill="#333" d="M106-169C34-169 62-67 57 0H25v-261h32l-1 103c12-21 28-36 61-36 89 0 53 116 60 194h-32v-121c2-32-8-49-39-48" id="av"/><g id="b"><use transform="matrix(0.05,0,0,0.05,0,0)" xlink:href="#as"/><use transform="matrix(0.05,0,0,0.05,12.950000000000001,0)" xlink:href="#at"/><use transform="matrix(0.05,0,0,0.05,16.900000000000002,0)" xlink:href="#au"/><use transform="matrix(0.05,0,0,0.05,21.900000000000002,0)" xlink:href="#av"/></g><g id="c"><use transform="matrix(0.05,0,0,0.05,0,0)" xlink:href="#au"/><use transform="matrix(0.05,0,0,0.05,5,0)" xlink:href="#as"/><use transform="matrix(0.05,0,0,0.05,17.950000000000003,0)" xlink:href="#ao"/></g><path fill="#333" d="M117-194c89-4 53 116 60 194h-32v-121c0-31-8-49-39-48C34-167 62-67 57 0H25l-1-190h30c1 10-1 24 2 32 11-22 29-35 61-36" id="aw"/><path fill="#333" d="M141-36C126-15 110 5 73 4 37 3 15-17 15-53c-1-64 63-63 125-63 3-35-9-54-41-54-24 1-41 7-42 31l-33-3c5-37 33-52 76-52 45 0 72 20 72 64v82c-1 20 7 32 28 27v20c-31 9-61-2-59-35zM48-53c0 20 12 33 32 33 41-3 63-29 60-74-43 2-92-5-92 41" id="ax"/><path fill="#333" d="M115-194c55 1 70 41 70 98S169 2 115 4C84 4 66-9 55-30l1 105H24l-1-265h31l2 30c10-21 28-34 59-34zm-8 174c40 0 45-34 45-75s-6-73-45-74c-42 0-51 32-51 76 0 43 10 73 51 73" id="ay"/><g id="d"><use transform="matrix(0.05,0,0,0.05,0,0)" xlink:href="#ar"/><use transform="matrix(0.05,0,0,0.05,9,0)" xlink:href="#aw"/><use transform="matrix(0.05,0,0,0.05,19,0)" xlink:href="#ax"/><use transform="matrix(0.05,0,0,0.05,29,0)" xlink:href="#ay"/><use transform="matrix(0.05,0,0,0.05,39,0)" xlink:href="#ar"/><use transform="matrix(0.05,0,0,0.05,48,0)" xlink:href="#av"/><use transform="matrix(0.05,0,0,0.05,58,0)" xlink:href="#ao"/><use transform="matrix(0.05,0,0,0.05,68,0)" xlink:href="#au"/><use transform="matrix(0.05,0,0,0.05,73,0)" xlink:href="#ar"/></g><path fill="#333" d="M205 0l-28-72H64L36 0H1l101-248h38L239 0h-34zm-38-99l-47-123c-12 45-31 82-46 123h93" id="az"/><g id="e"><use transform="matrix(0.05,0,0,0.05,0,0)" xlink:href="#az"/><use transform="matrix(0.05,0,0,0.05,12,0)" xlink:href="#aw"/></g><path fill="#333" d="M96-169c-40 0-48 33-48 73s9 75 48 75c24 0 41-14 43-38l32 2c-6 37-31 61-74 61-59 0-76-41-82-99-10-93 101-131 147-64 4 7 5 14 7 22l-32 3c-4-21-16-35-41-35" id="aA"/><g id="f"><use transform="matrix(0.05,0,0,0.05,0,0)" xlink:href="#at"/><use transform="matrix(0.05,0,0,0.05,3.95,0)" xlink:href="#aw"/><use transform="matrix(0.05,0,0,0.05,13.949999999999998,0)" xlink:href="#ar"/><use transform="matrix(0.05,0,0,0.05,22.95,0)" xlink:href="#au"/><use transform="matrix(0.05,0,0,0.05,27.950000000000003,0)" xlink:href="#ax"/><use transform="matrix(0.05,0,0,0.05,37.95,0)" xlink:href="#aw"/><use transform="matrix(0.05,0,0,0.05,47.95,0)" xlink:href="#aA"/><use transform="matrix(0.05,0,0,0.05,56.95,0)" xlink:href="#aq"/></g><g id="g"><use transform="matrix(0.05,0,0,0.05,0,0)" xlink:href="#au"/><use transform="matrix(0.05,0,0,0.05,5,0)" xlink:href="#av"/><use transform="matrix(0.05,0,0,0.05,15,0)" xlink:href="#an"/><use transform="matrix(0.05,0,0,0.05,20.95,0)" xlink:href="#aq"/><use transform="matrix(0.05,0,0,0.05,30.950000000000003,0)" xlink:href="#aq"/></g><path fill="#333" d="M85-194c31 0 48 13 60 33l-1-100h32l1 261h-30c-2-10 0-23-3-31C134-8 116 4 85 4 32 4 16-35 15-94c0-66 23-100 70-100zm9 24c-40 0-46 34-46 75 0 40 6 74 45 74 42 0 51-32 51-76 0-42-9-74-50-73" id="aB"/><path fill="#333" d="M115-194c53 0 69 39 70 98 0 66-23 100-70 100C84 3 66-7 56-30L54 0H23l1-261h32v101c10-23 28-34 59-34zm-8 174c40 0 45-34 45-75 0-40-5-75-45-74-42 0-51 32-51 76 0 43 10 73 51 73" id="aC"/><path fill="#333" d="M84 4C-5 8 30-112 23-190h32v120c0 31 7 50 39 49 72-2 45-101 50-169h31l1 190h-30c-1-10 1-25-2-33-11 22-28 36-60 37" id="aD"/><g id="h"><use transform="matrix(0.05,0,0,0.05,0,0)" xlink:href="#aB"/><use transform="matrix(0.05,0,0,0.05,10,0)" xlink:href="#at"/><use transform="matrix(0.05,0,0,0.05,13.949999999999998,0)" xlink:href="#ar"/><use transform="matrix(0.05,0,0,0.05,22.95,0)" xlink:href="#au"/><use transform="matrix(0.05,0,0,0.05,27.950000000000003,0)" xlink:href="#an"/><use transform="matrix(0.05,0,0,0.05,33.9,0)" xlink:href="#at"/><use transform="matrix(0.05,0,0,0.05,37.85,0)" xlink:href="#aC"/><use transform="matrix(0.05,0,0,0.05,47.85,0)" xlink:href="#aD"/><use transform="matrix(0.05,0,0,0.05,57.85,0)" xlink:href="#au"/><use transform="matrix(0.05,0,0,0.05,62.85,0)" xlink:href="#aq"/><use transform="matrix(0.05,0,0,0.05,72.85,0)" xlink:href="#aB"/></g><use transform="matrix(0.05,0,0,0.05,0,0)" xlink:href="#az" id="i"/><g id="j"><use transform="matrix(0.05,0,0,0.05,0,0)" xlink:href="#ar"/><use transform="matrix(0.05,0,0,0.05,9,0)" xlink:href="#au"/><use transform="matrix(0.05,0,0,0.05,14,0)" xlink:href="#aD"/><use transform="matrix(0.05,0,0,0.05,24,0)" xlink:href="#aB"/><use transform="matrix(0.05,0,0,0.05,34,0)" xlink:href="#aq"/><use transform="matrix(0.05,0,0,0.05,44,0)" xlink:href="#aw"/><use transform="matrix(0.05,0,0,0.05,54,0)" xlink:href="#au"/></g><g id="k"><use transform="matrix(0.05,0,0,0.05,0,0)" xlink:href="#ao"/><use transform="matrix(0.05,0,0,0.05,10,0)" xlink:href="#aw"/><use transform="matrix(0.05,0,0,0.05,20,0)" xlink:href="#aq"/></g><g id="l"><use transform="matrix(0.05,0,0,0.05,0,0)" xlink:href="#ar"/><use transform="matrix(0.05,0,0,0.05,9,0)" xlink:href="#aw"/><use transform="matrix(0.05,0,0,0.05,19,0)" xlink:href="#ax"/><use transform="matrix(0.05,0,0,0.05,29,0)" xlink:href="#ay"/><use transform="matrix(0.05,0,0,0.05,39,0)" xlink:href="#ar"/><use transform="matrix(0.05,0,0,0.05,48,0)" xlink:href="#av"/><use transform="matrix(0.05,0,0,0.05,58,0)" xlink:href="#ao"/><use transform="matrix(0.05,0,0,0.05,68,0)" xlink:href="#au"/></g><path fill="#333" d="M24 0v-261h32V0H24" id="aE"/><g id="m"><use transform="matrix(0.05,0,0,0.05,0,0)" xlink:href="#aA"/><use transform="matrix(0.05,0,0,0.05,9,0)" xlink:href="#aE"/><use transform="matrix(0.05,0,0,0.05,12.949999999999998,0)" xlink:href="#ax"/><use transform="matrix(0.05,0,0,0.05,22.95,0)" xlink:href="#ar"/><use transform="matrix(0.05,0,0,0.05,31.950000000000003,0)" xlink:href="#ar"/></g><g id="n"><use transform="matrix(0.05,0,0,0.05,0,0)" xlink:href="#ar"/><use transform="matrix(0.05,0,0,0.05,9,0)" xlink:href="#au"/><use transform="matrix(0.05,0,0,0.05,14,0)" xlink:href="#aD"/><use transform="matrix(0.05,0,0,0.05,24,0)" xlink:href="#aB"/><use transform="matrix(0.05,0,0,0.05,34,0)" xlink:href="#aq"/><use transform="matrix(0.05,0,0,0.05,44,0)" xlink:href="#aw"/><use transform="matrix(0.05,0,0,0.05,54,0)" xlink:href="#au"/><use transform="matrix(0.05,0,0,0.05,59,0)" xlink:href="#ar"/></g><g id="o"><use transform="matrix(0.05,0,0,0.05,0,0)" xlink:href="#ax"/><use transform="matrix(0.05,0,0,0.05,10,0)" xlink:href="#aw"/><use transform="matrix(0.05,0,0,0.05,20,0)" xlink:href="#aB"/></g><g id="p"><use transform="matrix(0.05,0,0,0.05,0,0)" xlink:href="#ay"/><use transform="matrix(0.05,0,0,0.05,10,0)" xlink:href="#an"/><use transform="matrix(0.05,0,0,0.05,15.949999999999998,0)" xlink:href="#ao"/><use transform="matrix(0.05,0,0,0.05,25.950000000000003,0)" xlink:href="#ap"/><use transform="matrix(0.05,0,0,0.05,30.950000000000003,0)" xlink:href="#aq"/><use transform="matrix(0.05,0,0,0.05,40.95,0)" xlink:href="#ar"/><use transform="matrix(0.05,0,0,0.05,49.95,0)" xlink:href="#ar"/><use transform="matrix(0.05,0,0,0.05,58.95,0)" xlink:href="#ao"/><use transform="matrix(0.05,0,0,0.05,68.95,0)" xlink:href="#an"/></g><path fill="#333" d="M177-190C167-65 218 103 67 71c-23-6-38-20-44-43l32-5c15 47 100 32 89-28v-30C133-14 115 1 83 1 29 1 15-40 15-95c0-56 16-97 71-98 29-1 48 16 59 35 1-10 0-23 2-32h30zM94-22c36 0 50-32 50-73 0-42-14-75-50-75-39 0-46 34-46 75s6 73 46 73" id="aF"/><path fill="#333" d="M9 0v-24l116-142H16v-24h144v24L44-24h123V0H9" id="aG"/><g id="q"><use transform="matrix(0.05,0,0,0.05,0,0)" xlink:href="#ao"/><use transform="matrix(0.05,0,0,0.05,10,0)" xlink:href="#an"/><use transform="matrix(0.05,0,0,0.05,15.949999999999998,0)" xlink:href="#aF"/><use transform="matrix(0.05,0,0,0.05,25.950000000000003,0)" xlink:href="#ax"/><use transform="matrix(0.05,0,0,0.05,35.95,0)" xlink:href="#aw"/><use transform="matrix(0.05,0,0,0.05,45.95,0)" xlink:href="#at"/><use transform="matrix(0.05,0,0,0.05,49.900000000000006,0)" xlink:href="#aG"/><use transform="matrix(0.05,0,0,0.05,58.900000000000006,0)" xlink:href="#ax"/><use transform="matrix(0.05,0,0,0.05,68.9,0)" xlink:href="#au"/><use transform="matrix(0.05,0,0,0.05,73.9,0)" xlink:href="#at"/><use transform="matrix(0.05,0,0,0.05,77.85000000000001,0)" xlink:href="#ao"/><use transform="matrix(0.05,0,0,0.05,87.85000000000001,0)" xlink:href="#aw"/></g><g id="r"><use transform="matrix(0.05,0,0,0.05,0,0)" xlink:href="#ar"/><use transform="matrix(0.05,0,0,0.05,9,0)" xlink:href="#ay"/><use transform="matrix(0.05,0,0,0.05,19,0)" xlink:href="#ax"/><use transform="matrix(0.05,0,0,0.05,29,0)" xlink:href="#aA"/><use transform="matrix(0.05,0,0,0.05,38,0)" xlink:href="#aq"/><use transform="matrix(0.05,0,0,0.05,48,0)" xlink:href="#ar"/></g><path fill="#fff" d="M140-251c81 0 123 46 123 126C263-46 219 4 140 4 59 4 17-45 17-125s42-126 123-126zm0 227c63 0 89-41 89-101s-29-99-89-99c-61 0-89 39-89 99S79-25 140-24" id="aH"/><path fill="#fff" d="M114-163C36-179 61-72 57 0H25l-1-190h30c1 12-1 29 2 39 6-27 23-49 58-41v29" id="aI"/><path fill="#fff" d="M177-190C167-65 218 103 67 71c-23-6-38-20-44-43l32-5c15 47 100 32 89-28v-30C133-14 115 1 83 1 29 1 15-40 15-95c0-56 16-97 71-98 29-1 48 16 59 35 1-10 0-23 2-32h30zM94-22c36 0 50-32 50-73 0-42-14-75-50-75-39 0-46 34-46 75s6 73 46 73" id="aJ"/><path fill="#fff" d="M141-36C126-15 110 5 73 4 37 3 15-17 15-53c-1-64 63-63 125-63 3-35-9-54-41-54-24 1-41 7-42 31l-33-3c5-37 33-52 76-52 45 0 72 20 72 64v82c-1 20 7 32 28 27v20c-31 9-61-2-59-35zM48-53c0 20 12 33 32 33 41-3 63-29 60-74-43 2-92-5-92 41" id="aK"/><path fill="#fff" d="M117-194c89-4 53 116 60 194h-32v-121c0-31-8-49-39-48C34-167 62-67 57 0H25l-1-190h30c1 10-1 24 2 32 11-22 29-35 61-36" id="aL"/><path fill="#fff" d="M24-231v-30h32v30H24zM24 0v-190h32V0H24" id="aM"/><path fill="#fff" d="M9 0v-24l116-142H16v-24h144v24L44-24h123V0H9" id="aN"/><path fill="#fff" d="M59-47c-2 24 18 29 38 22v24C64 9 27 4 27-40v-127H5v-23h24l9-43h21v43h35v23H59v120" id="aO"/><path fill="#fff" d="M100-194c62-1 85 37 85 99 1 63-27 99-86 99S16-35 15-95c0-66 28-99 85-99zM99-20c44 1 53-31 53-75 0-43-8-75-51-75s-53 32-53 75 10 74 51 75" id="aP"/><g id="s"><use transform="matrix(0.05,0,0,0.05,0,0)" xlink:href="#aH"/><use transform="matrix(0.05,0,0,0.05,14,0)" xlink:href="#aI"/><use transform="matrix(0.05,0,0,0.05,19.95,0)" xlink:href="#aJ"/><use transform="matrix(0.05,0,0,0.05,29.950000000000003,0)" xlink:href="#aK"/><use transform="matrix(0.05,0,0,0.05,39.95,0)" xlink:href="#aL"/><use transform="matrix(0.05,0,0,0.05,49.95,0)" xlink:href="#aM"/><use transform="matrix(0.05,0,0,0.05,53.900000000000006,0)" xlink:href="#aN"/><use transform="matrix(0.05,0,0,0.05,62.900000000000006,0)" xlink:href="#aK"/><use transform="matrix(0.05,0,0,0.05,72.9,0)" xlink:href="#aO"/><use transform="matrix(0.05,0,0,0.05,77.9,0)" xlink:href="#aM"/><use transform="matrix(0.05,0,0,0.05,81.85000000000001,0)" xlink:href="#aP"/><use transform="matrix(0.05,0,0,0.05,91.85000000000001,0)" xlink:href="#aL"/></g><path fill="#fff" d="M185-189c-5-48-123-54-124 2 14 75 158 14 163 119 3 78-121 87-175 55-17-10-28-26-33-46l33-7c5 56 141 63 141-1 0-78-155-14-162-118-5-82 145-84 179-34 5 7 8 16 11 25" id="aQ"/><path fill="#fff" d="M115-194c55 1 70 41 70 98S169 2 115 4C84 4 66-9 55-30l1 105H24l-1-265h31l2 30c10-21 28-34 59-34zm-8 174c40 0 45-34 45-75s-6-73-45-74c-42 0-51 32-51 76 0 43 10 73 51 73" id="aR"/><path fill="#fff" d="M96-169c-40 0-48 33-48 73s9 75 48 75c24 0 41-14 43-38l32 2c-6 37-31 61-74 61-59 0-76-41-82-99-10-93 101-131 147-64 4 7 5 14 7 22l-32 3c-4-21-16-35-41-35" id="aS"/><path fill="#fff" d="M100-194c63 0 86 42 84 106H49c0 40 14 67 53 68 26 1 43-12 49-29l28 8c-11 28-37 45-77 45C44 4 14-33 15-96c1-61 26-98 85-98zm52 81c6-60-76-77-97-28-3 7-6 17-6 28h103" id="aT"/><g id="t"><use transform="matrix(0.05,0,0,0.05,0,0)" xlink:href="#aQ"/><use transform="matrix(0.05,0,0,0.05,12,0)" xlink:href="#aR"/><use transform="matrix(0.05,0,0,0.05,22,0)" xlink:href="#aK"/><use transform="matrix(0.05,0,0,0.05,32,0)" xlink:href="#aS"/><use transform="matrix(0.05,0,0,0.05,41,0)" xlink:href="#aT"/></g><path fill="#fff" d="M27 0v-27h64v-190l-56 39v-29l58-41h29v221h61V0H27" id="aU"/><use transform="matrix(0.05,0,0,0.05,0,0)" xlink:href="#aU" id="u"/><path fill="#fff" d="M87 75C49 33 22-17 22-94c0-76 28-126 65-167h31c-38 41-64 92-64 168S80 34 118 75H87" id="aV"/><path fill="#fff" d="M135-143c-3-34-86-38-87 0 15 53 115 12 119 90S17 21 10-45l28-5c4 36 97 45 98 0-10-56-113-15-118-90-4-57 82-63 122-42 12 7 21 19 24 35" id="aW"/><g id="v"><use transform="matrix(0.05,0,0,0.05,0,0)" xlink:href="#aV"/><use transform="matrix(0.05,0,0,0.05,5.95,0)" xlink:href="#aQ"/><use transform="matrix(0.05,0,0,0.05,17.95,0)" xlink:href="#aO"/><use transform="matrix(0.05,0,0,0.05,22.95,0)" xlink:href="#aK"/><use transform="matrix(0.05,0,0,0.05,32.95,0)" xlink:href="#aO"/><use transform="matrix(0.05,0,0,0.05,37.95,0)" xlink:href="#aM"/><use transform="matrix(0.05,0,0,0.05,41.900000000000006,0)" xlink:href="#aW"/><use transform="matrix(0.05,0,0,0.05,50.900000000000006,0)" xlink:href="#aO"/><use transform="matrix(0.05,0,0,0.05,55.900000000000006,0)" xlink:href="#aM"/><use transform="matrix(0.05,0,0,0.05,59.85,0)" xlink:href="#aS"/><use transform="matrix(0.05,0,0,0.05,68.85000000000001,0)" xlink:href="#aW"/></g><path fill="#fff" d="M212-179c-10-28-35-45-73-45-59 0-87 40-87 99 0 60 29 101 89 101 43 0 62-24 78-52l27 14C228-24 195 4 139 4 59 4 22-46 18-125c-6-104 99-153 187-111 19 9 31 26 39 46" id="aX"/><path fill="#fff" d="M24 0v-261h32V0H24" id="aY"/><path fill="#fff" d="M33-261c38 41 65 92 65 168S71 34 33 75H2C39 34 66-17 66-93S39-220 2-261h31" id="aZ"/><g id="w"><use transform="matrix(0.05,0,0,0.05,0,0)" xlink:href="#aX"/><use transform="matrix(0.05,0,0,0.05,12.950000000000001,0)" xlink:href="#aY"/><use transform="matrix(0.05,0,0,0.05,16.900000000000002,0)" xlink:href="#aK"/><use transform="matrix(0.05,0,0,0.05,26.900000000000002,0)" xlink:href="#aW"/><use transform="matrix(0.05,0,0,0.05,35.900000000000006,0)" xlink:href="#aW"/><use transform="matrix(0.05,0,0,0.05,44.900000000000006,0)" xlink:href="#aZ"/></g><path fill="#fff" d="M240 0l2-218c-23 76-54 145-80 218h-23L58-218 59 0H30v-248h44l77 211c21-75 51-140 76-211h43V0h-30" id="ba"/><g id="x"><use transform="matrix(0.05,0,0,0.05,0,0)" xlink:href="#ba"/><use transform="matrix(0.05,0,0,0.05,14.950000000000001,0)" xlink:href="#aK"/><use transform="matrix(0.05,0,0,0.05,24.950000000000003,0)" xlink:href="#aW"/><use transform="matrix(0.05,0,0,0.05,33.95,0)" xlink:href="#aO"/><use transform="matrix(0.05,0,0,0.05,38.95,0)" xlink:href="#aT"/><use transform="matrix(0.05,0,0,0.05,48.95,0)" xlink:href="#aI"/></g><path fill="#fff" d="M33 0v-248h34V0H33" id="bb"/><g id="y"><use transform="matrix(0.05,0,0,0.05,0,0)" xlink:href="#bb"/><use transform="matrix(0.05,0,0,0.05,5,0)" xlink:href="#aL"/><use transform="matrix(0.05,0,0,0.05,15,0)" xlink:href="#aW"/><use transform="matrix(0.05,0,0,0.05,24,0)" xlink:href="#aO"/><use transform="matrix(0.05,0,0,0.05,29,0)" xlink:href="#aK"/><use transform="matrix(0.05,0,0,0.05,39,0)" xlink:href="#aL"/><use transform="matrix(0.05,0,0,0.05,49,0)" xlink:href="#aS"/><use transform="matrix(0.05,0,0,0.05,58,0)" xlink:href="#aT"/></g><path fill="#333" d="M212-179c-10-28-35-45-73-45-59 0-87 40-87 99 0 60 29 101 89 101 43 0 62-24 78-52l27 14C228-24 195 4 139 4 59 4 22-46 18-125c-6-104 99-153 187-111 19 9 31 26 39 46" id="bc"/><g id="z"><use transform="matrix(0.05,0,0,0.05,0,0)" xlink:href="#bc"/><use transform="matrix(0.05,0,0,0.05,12.950000000000001,0)" xlink:href="#aD"/><use transform="matrix(0.05,0,0,0.05,22.950000000000003,0)" xlink:href="#an"/><use transform="matrix(0.05,0,0,0.05,28.900000000000002,0)" xlink:href="#an"/><use transform="matrix(0.05,0,0,0.05,34.85,0)" xlink:href="#aq"/><use transform="matrix(0.05,0,0,0.05,44.85,0)" xlink:href="#aw"/><use transform="matrix(0.05,0,0,0.05,54.85,0)" xlink:href="#au"/></g><path fill="#333" d="M185-189c-5-48-123-54-124 2 14 75 158 14 163 119 3 78-121 87-175 55-17-10-28-26-33-46l33-7c5 56 141 63 141-1 0-78-155-14-162-118-5-82 145-84 179-34 5 7 8 16 11 25" id="bd"/><g id="A"><use transform="matrix(0.05,0,0,0.05,0,0)" xlink:href="#bd"/><use transform="matrix(0.05,0,0,0.05,12,0)" xlink:href="#au"/><use transform="matrix(0.05,0,0,0.05,17,0)" xlink:href="#ax"/><use transform="matrix(0.05,0,0,0.05,27,0)" xlink:href="#au"/><use transform="matrix(0.05,0,0,0.05,32,0)" xlink:href="#aq"/></g><g id="B"><use transform="matrix(0.05,0,0,0.05,0,0)" xlink:href="#ao"/><use transform="matrix(0.05,0,0,0.05,10,0)" xlink:href="#ap"/></g><path fill="#333" d="M240 0l2-218c-23 76-54 145-80 218h-23L58-218 59 0H30v-248h44l77 211c21-75 51-140 76-211h43V0h-30" id="be"/><g id="C"><use transform="matrix(0.05,0,0,0.05,0,0)" xlink:href="#be"/><use transform="matrix(0.05,0,0,0.05,14.950000000000001,0)" xlink:href="#ax"/><use transform="matrix(0.05,0,0,0.05,24.950000000000003,0)" xlink:href="#ar"/><use transform="matrix(0.05,0,0,0.05,33.95,0)" xlink:href="#au"/><use transform="matrix(0.05,0,0,0.05,38.95,0)" xlink:href="#aq"/><use transform="matrix(0.05,0,0,0.05,48.95,0)" xlink:href="#an"/></g><g id="D"><use transform="matrix(0.05,0,0,0.05,0,0)" xlink:href="#be"/><use transform="matrix(0.05,0,0,0.05,14.950000000000001,0)" xlink:href="#aD"/><use transform="matrix(0.05,0,0,0.05,24.950000000000003,0)" xlink:href="#au"/><use transform="matrix(0.05,0,0,0.05,29.950000000000003,0)" xlink:href="#ax"/><use transform="matrix(0.05,0,0,0.05,39.95,0)" xlink:href="#aC"/><use transform="matrix(0.05,0,0,0.05,49.95,0)" xlink:href="#aE"/><use transform="matrix(0.05,0,0,0.05,53.900000000000006,0)" xlink:href="#aq"/></g><path fill="#333" d="M63-220v92h138v28H63V0H30v-248h175v28H63" id="bf"/><g id="E"><use transform="matrix(0.05,0,0,0.05,0,0)" xlink:href="#bf"/><use transform="matrix(0.05,0,0,0.05,10.950000000000001,0)" xlink:href="#at"/><use transform="matrix(0.05,0,0,0.05,14.9,0)" xlink:href="#aE"/><use transform="matrix(0.05,0,0,0.05,18.85,0)" xlink:href="#aq"/><use transform="matrix(0.05,0,0,0.05,28.85,0)" xlink:href="#ar"/></g><path fill="#333" d="M127-220V0H93v-220H8v-28h204v28h-85" id="bg"/><g id="F"><use transform="matrix(0.05,0,0,0.05,0,0)" xlink:href="#bg"/><use transform="matrix(0.05,0,0,0.05,8.950000000000001,0)" xlink:href="#ax"/><use transform="matrix(0.05,0,0,0.05,18.950000000000003,0)" xlink:href="#aC"/><use transform="matrix(0.05,0,0,0.05,28.950000000000003,0)" xlink:href="#aE"/><use transform="matrix(0.05,0,0,0.05,32.900000000000006,0)" xlink:href="#aq"/><use transform="matrix(0.05,0,0,0.05,42.900000000000006,0)" xlink:href="#ar"/></g><path fill="#333" d="M232-93c-1 65-40 97-104 97C67 4 28-28 28-90v-158h33c8 89-33 224 67 224 102 0 64-133 71-224h33v155" id="bh"/><g id="G"><use transform="matrix(0.05,0,0,0.05,0,0)" xlink:href="#bh"/><use transform="matrix(0.05,0,0,0.05,12.950000000000001,0)" xlink:href="#ar"/><use transform="matrix(0.05,0,0,0.05,21.950000000000003,0)" xlink:href="#ax"/><use transform="matrix(0.05,0,0,0.05,31.950000000000003,0)" xlink:href="#aC"/><use transform="matrix(0.05,0,0,0.05,41.95,0)" xlink:href="#aE"/><use transform="matrix(0.05,0,0,0.05,45.900000000000006,0)" xlink:href="#aq"/></g><g id="H"><use transform="matrix(0.05,0,0,0.05,0,0)" xlink:href="#az"/><use transform="matrix(0.05,0,0,0.05,12,0)" xlink:href="#ay"/><use transform="matrix(0.05,0,0,0.05,22,0)" xlink:href="#ay"/><use transform="matrix(0.05,0,0,0.05,32,0)" xlink:href="#aE"/><use transform="matrix(0.05,0,0,0.05,35.95,0)" xlink:href="#at"/><use transform="matrix(0.05,0,0,0.05,39.900000000000006,0)" xlink:href="#aA"/><use transform="matrix(0.05,0,0,0.05,48.900000000000006,0)" xlink:href="#ax"/><use transform="matrix(0.05,0,0,0.05,58.900000000000006,0)" xlink:href="#au"/><use transform="matrix(0.05,0,0,0.05,63.900000000000006,0)" xlink:href="#at"/><use transform="matrix(0.05,0,0,0.05,67.85000000000001,0)" xlink:href="#ao"/><use transform="matrix(0.05,0,0,0.05,77.85000000000001,0)" xlink:href="#aw"/><use transform="matrix(0.05,0,0,0.05,87.85000000000001,0)" xlink:href="#ar"/></g><g id="I"><use transform="matrix(0.05,0,0,0.05,0,0)" xlink:href="#bd"/><use transform="matrix(0.05,0,0,0.05,12,0)" xlink:href="#aw"/><use transform="matrix(0.05,0,0,0.05,22,0)" xlink:href="#ax"/><use transform="matrix(0.05,0,0,0.05,32,0)" xlink:href="#ay"/><use transform="matrix(0.05,0,0,0.05,42,0)" xlink:href="#ar"/><use transform="matrix(0.05,0,0,0.05,51,0)" xlink:href="#av"/><use transform="matrix(0.05,0,0,0.05,61,0)" xlink:href="#ao"/><use transform="matrix(0.05,0,0,0.05,71,0)" xlink:href="#au"/></g><g id="J"><use transform="matrix(0.05,0,0,0.05,0,0)" xlink:href="#aA"/><use transform="matrix(0.05,0,0,0.05,9,0)" xlink:href="#an"/><use transform="matrix(0.05,0,0,0.05,14.949999999999998,0)" xlink:href="#aq"/><use transform="matrix(0.05,0,0,0.05,24.95,0)" xlink:href="#ax"/><use transform="matrix(0.05,0,0,0.05,34.95,0)" xlink:href="#au"/><use transform="matrix(0.05,0,0,0.05,39.95,0)" xlink:href="#aq"/><use transform="matrix(0.05,0,0,0.05,49.95,0)" xlink:href="#aB"/></g><path fill="#333" d="M179-190L93 31C79 59 56 82 12 73V49c39 6 53-20 64-50L1-190h34L92-34l54-156h33" id="bi"/><g id="K"><use transform="matrix(0.05,0,0,0.05,0,0)" xlink:href="#aC"/><use transform="matrix(0.05,0,0,0.05,10,0)" xlink:href="#bi"/></g><g id="L"><use transform="matrix(0.05,0,0,0.05,0,0)" xlink:href="#ay"/><use transform="matrix(0.05,0,0,0.05,10,0)" xlink:href="#an"/><use transform="matrix(0.05,0,0,0.05,15.949999999999998,0)" xlink:href="#ao"/><use transform="matrix(0.05,0,0,0.05,25.950000000000003,0)" xlink:href="#ap"/><use transform="matrix(0.05,0,0,0.05,30.950000000000003,0)" xlink:href="#aq"/><use transform="matrix(0.05,0,0,0.05,40.95,0)" xlink:href="#ar"/><use transform="matrix(0.05,0,0,0.05,49.95,0)" xlink:href="#ar"/><use transform="matrix(0.05,0,0,0.05,58.95,0)" xlink:href="#ao"/><use transform="matrix(0.05,0,0,0.05,68.95,0)" xlink:href="#an"/></g><path fill="#333" d="M33 0v-248h34V0H33" id="bj"/><path fill="#333" d="M210-169c-67 3-38 105-44 169h-31v-121c0-29-5-50-35-48C34-165 62-65 56 0H25l-1-190h30c1 10-1 24 2 32 10-44 99-50 107 0 11-21 27-35 58-36 85-2 47 119 55 194h-31v-121c0-29-5-49-35-48" id="bk"/><g id="M"><use transform="matrix(0.05,0,0,0.05,0,0)" xlink:href="#bj"/><use transform="matrix(0.05,0,0,0.05,5,0)" xlink:href="#bk"/><use transform="matrix(0.05,0,0,0.05,19.950000000000003,0)" xlink:href="#bk"/><use transform="matrix(0.05,0,0,0.05,34.900000000000006,0)" xlink:href="#aD"/><use transform="matrix(0.05,0,0,0.05,44.900000000000006,0)" xlink:href="#au"/><use transform="matrix(0.05,0,0,0.05,49.900000000000006,0)" xlink:href="#ax"/><use transform="matrix(0.05,0,0,0.05,59.900000000000006,0)" xlink:href="#aC"/><use transform="matrix(0.05,0,0,0.05,69.9,0)" xlink:href="#aE"/><use transform="matrix(0.05,0,0,0.05,73.85000000000001,0)" xlink:href="#aq"/></g><g id="N"><use transform="matrix(0.05,0,0,0.05,0,0)" xlink:href="#bh"/><use transform="matrix(0.05,0,0,0.05,12.950000000000001,0)" xlink:href="#aw"/><use transform="matrix(0.05,0,0,0.05,22.950000000000003,0)" xlink:href="#aD"/><use transform="matrix(0.05,0,0,0.05,32.95,0)" xlink:href="#ar"/><use transform="matrix(0.05,0,0,0.05,41.95,0)" xlink:href="#ax"/><use transform="matrix(0.05,0,0,0.05,51.95,0)" xlink:href="#aC"/><use transform="matrix(0.05,0,0,0.05,61.95,0)" xlink:href="#aE"/><use transform="matrix(0.05,0,0,0.05,65.9,0)" xlink:href="#aq"/></g><g id="O"><use transform="matrix(0.05,0,0,0.05,0,0)" xlink:href="#az"/><use transform="matrix(0.05,0,0,0.05,12,0)" xlink:href="#ay"/><use transform="matrix(0.05,0,0,0.05,22,0)" xlink:href="#ay"/><use transform="matrix(0.05,0,0,0.05,32,0)" xlink:href="#aE"/><use transform="matrix(0.05,0,0,0.05,35.95,0)" xlink:href="#at"/><use transform="matrix(0.05,0,0,0.05,39.900000000000006,0)" xlink:href="#aA"/><use transform="matrix(0.05,0,0,0.05,48.900000000000006,0)" xlink:href="#ax"/><use transform="matrix(0.05,0,0,0.05,58.900000000000006,0)" xlink:href="#au"/><use transform="matrix(0.05,0,0,0.05,63.900000000000006,0)" xlink:href="#at"/><use transform="matrix(0.05,0,0,0.05,67.85000000000001,0)" xlink:href="#ao"/><use transform="matrix(0.05,0,0,0.05,77.85000000000001,0)" xlink:href="#aw"/><use transform="matrix(0.05,0,0,0.05,87.85000000000001,0)" xlink:href="#ar"/></g><path fill="#fff" d="M30-248c118-7 216 8 213 122C240-48 200 0 122 0H30v-248zM63-27c89 8 146-16 146-99s-60-101-146-95v194" id="bl"/><path fill="#fff" d="M115-194c53 0 69 39 70 98 0 66-23 100-70 100C84 3 66-7 56-30L54 0H23l1-261h32v101c10-23 28-34 59-34zm-8 174c40 0 45-34 45-75 0-40-5-75-45-74-42 0-51 32-51 76 0 43 10 73 51 73" id="bm"/><path fill="#fff" d="M84 4C-5 8 30-112 23-190h32v120c0 31 7 50 39 49 72-2 45-101 50-169h31l1 190h-30c-1-10 1-25-2-33-11 22-28 36-60 37" id="bn"/><path fill="#fff" d="M85-194c31 0 48 13 60 33l-1-100h32l1 261h-30c-2-10 0-23-3-31C134-8 116 4 85 4 32 4 16-35 15-94c0-66 23-100 70-100zm9 24c-40 0-46 34-46 75 0 40 6 74 45 74 42 0 51-32 51-76 0-42-9-74-50-73" id="bo"/><g id="P"><use transform="matrix(0.05,0,0,0.05,0,0)" xlink:href="#bl"/><use transform="matrix(0.05,0,0,0.05,12.950000000000001,0)" xlink:href="#aM"/><use transform="matrix(0.05,0,0,0.05,16.900000000000002,0)" xlink:href="#aW"/><use transform="matrix(0.05,0,0,0.05,25.900000000000002,0)" xlink:href="#aO"/><use transform="matrix(0.05,0,0,0.05,30.900000000000002,0)" xlink:href="#aI"/><use transform="matrix(0.05,0,0,0.05,36.85,0)" xlink:href="#aM"/><use transform="matrix(0.05,0,0,0.05,40.800000000000004,0)" xlink:href="#bm"/><use transform="matrix(0.05,0,0,0.05,50.800000000000004,0)" xlink:href="#bn"/><use transform="matrix(0.05,0,0,0.05,60.800000000000004,0)" xlink:href="#aO"/><use transform="matrix(0.05,0,0,0.05,65.80000000000001,0)" xlink:href="#aT"/><use transform="matrix(0.05,0,0,0.05,75.80000000000001,0)" xlink:href="#bo"/></g><path fill="#333" d="M30-248c118-7 216 8 213 122C240-48 200 0 122 0H30v-248zM63-27c89 8 146-16 146-99s-60-101-146-95v194" id="bp"/><g id="Q"><use transform="matrix(0.05,0,0,0.05,0,0)" xlink:href="#bp"/><use transform="matrix(0.05,0,0,0.05,12.950000000000001,0)" xlink:href="#at"/><use transform="matrix(0.05,0,0,0.05,16.900000000000002,0)" xlink:href="#ar"/><use transform="matrix(0.05,0,0,0.05,25.900000000000002,0)" xlink:href="#au"/><use transform="matrix(0.05,0,0,0.05,30.900000000000002,0)" xlink:href="#an"/><use transform="matrix(0.05,0,0,0.05,36.85,0)" xlink:href="#at"/><use transform="matrix(0.05,0,0,0.05,40.800000000000004,0)" xlink:href="#aC"/><use transform="matrix(0.05,0,0,0.05,50.800000000000004,0)" xlink:href="#aD"/><use transform="matrix(0.05,0,0,0.05,60.800000000000004,0)" xlink:href="#au"/><use transform="matrix(0.05,0,0,0.05,65.80000000000001,0)" xlink:href="#aq"/><use transform="matrix(0.05,0,0,0.05,75.80000000000001,0)" xlink:href="#aB"/></g><g id="S"><use transform="matrix(0.05,0,0,0.05,0,0)" xlink:href="#ar"/><use transform="matrix(0.05,0,0,0.05,9,0)" xlink:href="#aw"/><use transform="matrix(0.05,0,0,0.05,19,0)" xlink:href="#ax"/><use transform="matrix(0.05,0,0,0.05,29,0)" xlink:href="#ay"/><use transform="matrix(0.05,0,0,0.05,39,0)" xlink:href="#ar"/><use transform="matrix(0.05,0,0,0.05,48,0)" xlink:href="#av"/><use transform="matrix(0.05,0,0,0.05,58,0)" xlink:href="#ao"/><use transform="matrix(0.05,0,0,0.05,68,0)" xlink:href="#au"/></g><path fill="#333" d="M27 0v-27h64v-190l-56 39v-29l58-41h29v221h61V0H27" id="bq"/><use transform="matrix(0.05,0,0,0.05,0,0)" xlink:href="#bq" id="T"/><g id="U"><use transform="matrix(0.05,0,0,0.05,0,0)" xlink:href="#bp"/><use transform="matrix(0.05,0,0,0.05,12.950000000000001,0)" xlink:href="#at"/><use transform="matrix(0.05,0,0,0.05,16.900000000000002,0)" xlink:href="#ar"/><use transform="matrix(0.05,0,0,0.05,25.900000000000002,0)" xlink:href="#au"/><use transform="matrix(0.05,0,0,0.05,30.900000000000002,0)" xlink:href="#an"/><use transform="matrix(0.05,0,0,0.05,36.85,0)" xlink:href="#at"/><use transform="matrix(0.05,0,0,0.05,40.800000000000004,0)" xlink:href="#aC"/><use transform="matrix(0.05,0,0,0.05,50.800000000000004,0)" xlink:href="#aD"/><use transform="matrix(0.05,0,0,0.05,60.800000000000004,0)" xlink:href="#au"/><use transform="matrix(0.05,0,0,0.05,65.80000000000001,0)" xlink:href="#aq"/><use transform="matrix(0.05,0,0,0.05,75.80000000000001,0)" xlink:href="#aB"/></g><g id="V"><use transform="matrix(0.05,0,0,0.05,0,0)" xlink:href="#ar"/><use transform="matrix(0.05,0,0,0.05,9,0)" xlink:href="#aw"/><use transform="matrix(0.05,0,0,0.05,19,0)" xlink:href="#ax"/><use transform="matrix(0.05,0,0,0.05,29,0)" xlink:href="#ay"/><use transform="matrix(0.05,0,0,0.05,39,0)" xlink:href="#ar"/><use transform="matrix(0.05,0,0,0.05,48,0)" xlink:href="#av"/><use transform="matrix(0.05,0,0,0.05,58,0)" xlink:href="#ao"/><use transform="matrix(0.05,0,0,0.05,68,0)" xlink:href="#au"/></g><path fill="#333" d="M101-251c82-7 93 87 43 132L82-64C71-53 59-42 53-27h129V0H18c2-99 128-94 128-182 0-28-16-43-45-43s-46 15-49 41l-32-3c6-41 34-60 81-64" id="br"/><use transform="matrix(0.05,0,0,0.05,0,0)" xlink:href="#br" id="W"/><path fill="#333" d="M126-127c33 6 58 20 58 59 0 88-139 92-164 29-3-8-5-16-6-25l32-3c6 27 21 44 54 44 32 0 52-15 52-46 0-38-36-46-79-43v-28c39 1 72-4 72-42 0-27-17-43-46-43-28 0-47 15-49 41l-32-3c6-42 35-63 81-64 48-1 79 21 79 65 0 36-21 52-52 59" id="bs"/><use transform="matrix(0.05,0,0,0.05,0,0)" xlink:href="#bs" id="X"/><g id="Y"><use transform="matrix(0.05,0,0,0.05,0,0)" xlink:href="#bd"/><use transform="matrix(0.05,0,0,0.05,12,0)" xlink:href="#au"/><use transform="matrix(0.05,0,0,0.05,17,0)" xlink:href="#aD"/><use transform="matrix(0.05,0,0,0.05,27,0)" xlink:href="#aB"/><use transform="matrix(0.05,0,0,0.05,37,0)" xlink:href="#aq"/><use transform="matrix(0.05,0,0,0.05,47,0)" xlink:href="#aw"/><use transform="matrix(0.05,0,0,0.05,57,0)" xlink:href="#au"/></g><use transform="matrix(0.05,0,0,0.05,0,0)" xlink:href="#bq" id="Z"/><g id="aa"><use transform="matrix(0.05,0,0,0.05,0,0)" xlink:href="#at"/><use transform="matrix(0.05,0,0,0.05,3.95,0)" xlink:href="#aw"/><use transform="matrix(0.05,0,0,0.05,13.949999999999998,0)" xlink:href="#ar"/><use transform="matrix(0.05,0,0,0.05,22.95,0)" xlink:href="#au"/><use transform="matrix(0.05,0,0,0.05,27.950000000000003,0)" xlink:href="#ax"/><use transform="matrix(0.05,0,0,0.05,37.95,0)" xlink:href="#aw"/><use transform="matrix(0.05,0,0,0.05,47.95,0)" xlink:href="#aA"/><use transform="matrix(0.05,0,0,0.05,56.95,0)" xlink:href="#aq"/></g><g id="ab"><use transform="matrix(0.05,0,0,0.05,0,0)" xlink:href="#ar"/><use transform="matrix(0.05,0,0,0.05,9,0)" xlink:href="#au"/><use transform="matrix(0.05,0,0,0.05,14,0)" xlink:href="#aD"/><use transform="matrix(0.05,0,0,0.05,24,0)" xlink:href="#aB"/><use transform="matrix(0.05,0,0,0.05,34,0)" xlink:href="#aq"/><use transform="matrix(0.05,0,0,0.05,44,0)" xlink:href="#aw"/><use transform="matrix(0.05,0,0,0.05,54,0)" xlink:href="#au"/></g><g id="ac"><use transform="matrix(0.05,0,0,0.05,0,0)" xlink:href="#aA"/><use transform="matrix(0.05,0,0,0.05,9,0)" xlink:href="#an"/><use transform="matrix(0.05,0,0,0.05,14.949999999999998,0)" xlink:href="#aq"/><use transform="matrix(0.05,0,0,0.05,24.95,0)" xlink:href="#ax"/><use transform="matrix(0.05,0,0,0.05,34.95,0)" xlink:href="#au"/><use transform="matrix(0.05,0,0,0.05,39.95,0)" xlink:href="#aq"/></g><g id="ad"><use transform="matrix(0.05,0,0,0.05,0,0)" xlink:href="#ar"/><use transform="matrix(0.05,0,0,0.05,9,0)" xlink:href="#au"/><use transform="matrix(0.05,0,0,0.05,14,0)" xlink:href="#aD"/><use transform="matrix(0.05,0,0,0.05,24,0)" xlink:href="#aB"/><use transform="matrix(0.05,0,0,0.05,34,0)" xlink:href="#aq"/><use transform="matrix(0.05,0,0,0.05,44,0)" xlink:href="#aw"/><use transform="matrix(0.05,0,0,0.05,54,0)" xlink:href="#au"/><use transform="matrix(0.05,0,0,0.05,59,0)" xlink:href="#bq"/></g><use transform="matrix(0.05,0,0,0.05,0,0)" xlink:href="#br" id="ae"/><use transform="matrix(0.05,0,0,0.05,0,0)" xlink:href="#bs" id="af"/><path fill="#fff" d="M101-251c82-7 93 87 43 132L82-64C71-53 59-42 53-27h129V0H18c2-99 128-94 128-182 0-28-16-43-45-43s-46 15-49 41l-32-3c6-41 34-60 81-64" id="bt"/><use transform="matrix(0.05,0,0,0.05,0,0)" xlink:href="#bt" id="ag"/><path fill="#fff" d="M233-177c-1 41-23 64-60 70L243 0h-38l-65-103H63V0H30v-248c88 3 205-21 203 71zM63-129c60-2 137 13 137-47 0-61-80-42-137-45v92" id="bu"/><path fill="#fff" d="M106-169C34-169 62-67 57 0H25v-261h32l-1 103c12-21 28-36 61-36 89 0 53 116 60 194h-32v-121c2-32-8-49-39-48" id="bv"/><g id="ah"><use transform="matrix(0.05,0,0,0.05,0,0)" xlink:href="#aV"/><use transform="matrix(0.05,0,0,0.05,5.95,0)" xlink:href="#bu"/><use transform="matrix(0.05,0,0,0.05,18.900000000000002,0)" xlink:href="#aT"/><use transform="matrix(0.05,0,0,0.05,28.900000000000002,0)" xlink:href="#aW"/><use transform="matrix(0.05,0,0,0.05,37.900000000000006,0)" xlink:href="#aT"/><use transform="matrix(0.05,0,0,0.05,47.900000000000006,0)" xlink:href="#aK"/><use transform="matrix(0.05,0,0,0.05,57.900000000000006,0)" xlink:href="#aI"/><use transform="matrix(0.05,0,0,0.05,63.85,0)" xlink:href="#aS"/><use transform="matrix(0.05,0,0,0.05,72.85000000000001,0)" xlink:href="#bv"/></g><path fill="#fff" d="M30-248c87 1 191-15 191 75 0 78-77 80-158 76V0H30v-248zm33 125c57 0 124 11 124-50 0-59-68-47-124-48v98" id="bw"/><path fill="#fff" d="M24-231v-30h32v30H24zM-9 49c24 4 33-6 33-30v-209h32V24c2 40-23 58-65 49V49" id="bx"/><g id="ai"><use transform="matrix(0.05,0,0,0.05,0,0)" xlink:href="#bw"/><use transform="matrix(0.05,0,0,0.05,12,0)" xlink:href="#aI"/><use transform="matrix(0.05,0,0,0.05,17.95,0)" xlink:href="#aP"/><use transform="matrix(0.05,0,0,0.05,27.950000000000003,0)" xlink:href="#bx"/><use transform="matrix(0.05,0,0,0.05,31.899999999999995,0)" xlink:href="#aT"/><use transform="matrix(0.05,0,0,0.05,41.9,0)" xlink:href="#aS"/><use transform="matrix(0.05,0,0,0.05,50.9,0)" xlink:href="#aO"/><use transform="matrix(0.05,0,0,0.05,55.900000000000006,0)" xlink:href="#aZ"/></g><path fill="#fff" d="M126-127c33 6 58 20 58 59 0 88-139 92-164 29-3-8-5-16-6-25l32-3c6 27 21 44 54 44 32 0 52-15 52-46 0-38-36-46-79-43v-28c39 1 72-4 72-42 0-27-17-43-46-43-28 0-47 15-49 41l-32-3c6-42 35-63 81-64 48-1 79 21 79 65 0 36-21 52-52 59" id="by"/><use transform="matrix(0.05,0,0,0.05,0,0)" xlink:href="#by" id="aj"/><path fill="#fff" d="M210-169c-67 3-38 105-44 169h-31v-121c0-29-5-50-35-48C34-165 62-65 56 0H25l-1-190h30c1 10-1 24 2 32 10-44 99-50 107 0 11-21 27-35 58-36 85-2 47 119 55 194h-31v-121c0-29-5-49-35-48" id="bz"/><g id="ak"><use transform="matrix(0.05,0,0,0.05,0,0)" xlink:href="#aV"/><use transform="matrix(0.05,0,0,0.05,5.95,0)" xlink:href="#aQ"/><use transform="matrix(0.05,0,0,0.05,17.95,0)" xlink:href="#bn"/><use transform="matrix(0.05,0,0,0.05,27.950000000000003,0)" xlink:href="#bz"/><use transform="matrix(0.05,0,0,0.05,42.9,0)" xlink:href="#bz"/><use transform="matrix(0.05,0,0,0.05,57.85,0)" xlink:href="#aT"/><use transform="matrix(0.05,0,0,0.05,67.85,0)" xlink:href="#aI"/></g><g id="al"><use transform="matrix(0.05,0,0,0.05,0,0)" xlink:href="#aW"/><use transform="matrix(0.05,0,0,0.05,9,0)" xlink:href="#aS"/><use transform="matrix(0.05,0,0,0.05,18,0)" xlink:href="#bv"/><use transform="matrix(0.05,0,0,0.05,28,0)" xlink:href="#aP"/><use transform="matrix(0.05,0,0,0.05,38,0)" xlink:href="#aP"/><use transform="matrix(0.05,0,0,0.05,48,0)" xlink:href="#aY"/><use transform="matrix(0.05,0,0,0.05,51.95,0)" xlink:href="#aZ"/></g></defs></g></svg>